<?xml version="1.0" encoding="UTF-8"?>
<svg xmlns="http://www.w3.org/2000/svg" xmlns:xlink="http://www.w3.org/1999/xlink" width="118pt" height="37pt" viewBox="0 0 118 37" version="1.1">
<g id="surface1">
<path style=" stroke:none;fill-rule:nonzero;fill:rgb(100%,35.294118%,37.254902%);fill-opacity:1;" d="M 62.207031 9.328125 C 62.207031 10.664062 61.140625 11.738281 59.8125 11.738281 C 58.484375 11.738281 57.417969 10.664062 57.417969 9.328125 C 57.417969 7.988281 58.449219 6.910156 59.8125 6.910156 C 61.175781 6.949219 62.207031 8.027344 62.207031 9.328125 Z M 52.328125 14.191406 L 52.328125 14.789062 C 52.328125 14.789062 51.1875 13.300781 48.753906 13.300781 C 44.734375 13.300781 41.601562 16.382812 41.601562 20.65625 C 41.601562 24.890625 44.699219 28.011719 48.753906 28.011719 C 51.222656 28.011719 52.328125 26.488281 52.328125 26.488281 L 52.328125 27.121094 C 52.328125 27.417969 52.550781 27.636719 52.84375 27.636719 L 55.832031 27.636719 L 55.832031 13.671875 L 52.84375 13.671875 C 52.550781 13.671875 52.328125 13.933594 52.328125 14.191406 Z M 52.328125 23.144531 C 51.777344 23.964844 50.671875 24.667969 49.34375 24.667969 C 46.984375 24.667969 45.179688 23.179688 45.179688 20.65625 C 45.179688 18.128906 46.984375 16.640625 49.34375 16.640625 C 50.636719 16.640625 51.8125 17.386719 52.328125 18.167969 Z M 58.042969 13.671875 L 61.582031 13.671875 L 61.582031 27.640625 L 58.042969 27.640625 Z M 110.90625 13.296875 C 108.472656 13.296875 107.332031 14.785156 107.332031 14.785156 L 107.332031 6.949219 L 103.789062 6.949219 L 103.789062 27.640625 L 106.777344 27.640625 C 107.074219 27.640625 107.292969 27.382812 107.292969 27.121094 L 107.292969 26.488281 C 107.292969 26.488281 108.4375 28.011719 110.867188 28.011719 C 114.890625 28.011719 118.019531 24.894531 118.019531 20.65625 C 118.019531 16.421875 114.890625 13.296875 110.90625 13.296875 Z M 110.316406 24.628906 C 108.953125 24.628906 107.882812 23.925781 107.332031 23.105469 L 107.332031 18.128906 C 107.882812 17.386719 109.0625 16.605469 110.316406 16.605469 C 112.675781 16.605469 114.480469 18.09375 114.480469 20.621094 C 114.480469 23.144531 112.675781 24.628906 110.316406 24.628906 Z M 101.949219 19.355469 L 101.949219 27.675781 L 98.410156 27.675781 L 98.410156 19.761719 C 98.410156 17.460938 97.671875 16.53125 95.683594 16.53125 C 94.613281 16.53125 93.507812 17.089844 92.804688 17.90625 L 92.804688 27.640625 L 89.269531 27.640625 L 89.269531 13.671875 L 92.070312 13.671875 C 92.363281 13.671875 92.585938 13.933594 92.585938 14.191406 L 92.585938 14.789062 C 93.617188 13.710938 94.980469 13.300781 96.34375 13.300781 C 97.894531 13.300781 99.183594 13.746094 100.214844 14.636719 C 101.46875 15.679688 101.949219 17.015625 101.949219 19.355469 Z M 80.675781 13.296875 C 78.242188 13.296875 77.101562 14.785156 77.101562 14.785156 L 77.101562 6.949219 L 73.5625 6.949219 L 73.5625 27.640625 L 76.546875 27.640625 C 76.84375 27.640625 77.066406 27.382812 77.066406 27.121094 L 77.066406 26.488281 C 77.066406 26.488281 78.207031 28.011719 80.640625 28.011719 C 84.660156 28.011719 87.789062 24.894531 87.789062 20.65625 C 87.828125 16.417969 84.695312 13.296875 80.675781 13.296875 Z M 80.085938 24.628906 C 78.722656 24.628906 77.65625 23.925781 77.101562 23.105469 L 77.101562 18.128906 C 77.65625 17.386719 78.835938 16.605469 80.085938 16.605469 C 82.445312 16.605469 84.253906 18.09375 84.253906 20.621094 C 84.253906 23.144531 82.445312 24.628906 80.085938 24.628906 Z M 70.503906 13.296875 C 71.574219 13.296875 72.125 13.484375 72.125 13.484375 L 72.125 16.792969 C 72.125 16.792969 69.175781 15.789062 67.332031 17.90625 L 67.332031 27.675781 L 63.792969 27.675781 L 63.792969 13.671875 L 66.78125 13.671875 C 67.074219 13.671875 67.296875 13.933594 67.296875 14.191406 L 67.296875 14.785156 C 67.957031 14.007812 69.398438 13.296875 70.503906 13.296875 Z M 33.75 26.375 C 33.566406 25.929688 33.382812 25.445312 33.195312 25.039062 C 32.902344 24.371094 32.609375 23.738281 32.347656 23.144531 L 32.3125 23.105469 C 29.769531 17.535156 27.042969 11.886719 24.167969 6.316406 L 24.054688 6.09375 C 23.753906 5.515625 23.457031 4.933594 23.171875 4.347656 C 22.800781 3.679688 22.433594 2.972656 21.84375 2.304688 C 20.664062 0.816406 18.96875 0 17.160156 0 C 15.316406 0 13.660156 0.816406 12.441406 2.230469 C 11.890625 2.898438 11.484375 3.601562 11.117188 4.269531 C 10.828125 4.855469 10.535156 5.441406 10.230469 6.019531 L 10.121094 6.242188 C 7.285156 11.8125 4.519531 17.460938 1.972656 23.03125 L 1.9375 23.105469 C 1.679688 23.703125 1.382812 24.332031 1.089844 25 C 0.902344 25.410156 0.722656 25.855469 0.539062 26.339844 C 0.0546875 27.710938 -0.0898438 29.011719 0.09375 30.351562 C 0.5 33.136719 2.34375 35.476562 4.886719 36.519531 C 5.84375 36.925781 6.839844 37.113281 7.871094 37.113281 C 8.167969 37.113281 8.535156 37.078125 8.832031 37.039062 C 10.050781 36.890625 11.300781 36.480469 12.519531 35.777344 C 14.027344 34.921875 15.46875 33.695312 17.089844 31.914062 C 18.710938 33.695312 20.183594 34.921875 21.660156 35.777344 C 22.878906 36.480469 24.132812 36.890625 25.34375 37.039062 C 25.640625 37.078125 26.011719 37.113281 26.304688 37.113281 C 27.335938 37.113281 28.367188 36.925781 29.289062 36.519531 C 31.871094 35.476562 33.679688 33.101562 34.082031 30.351562 C 34.375 29.050781 34.230469 27.75 33.75 26.375 Z M 17.125 28.308594 C 15.132812 25.78125 13.84375 23.40625 13.402344 21.398438 C 13.214844 20.546875 13.179688 19.800781 13.289062 19.132812 C 13.363281 18.539062 13.585938 18.019531 13.882812 17.570312 C 14.582031 16.570312 15.761719 15.9375 17.125 15.9375 C 18.492188 15.9375 19.703125 16.53125 20.371094 17.570312 C 20.664062 18.019531 20.882812 18.539062 20.960938 19.132812 C 21.070312 19.800781 21.035156 20.582031 20.847656 21.398438 C 20.40625 23.367188 19.113281 25.746094 17.125 28.308594 Z M 31.832031 30.054688 C 31.574219 31.988281 30.285156 33.660156 28.476562 34.398438 C 27.59375 34.773438 26.632812 34.886719 25.675781 34.773438 C 24.753906 34.660156 23.832031 34.363281 22.875 33.808594 C 21.546875 33.066406 20.222656 31.914062 18.675781 30.203125 C 21.105469 27.195312 22.578125 24.445312 23.132812 21.992188 C 23.390625 20.839844 23.429688 19.800781 23.320312 18.832031 C 23.171875 17.90625 22.839844 17.054688 22.324219 16.308594 C 21.179688 14.636719 19.261719 13.671875 17.125 13.671875 C 14.988281 13.671875 13.070312 14.675781 11.929688 16.308594 C 11.410156 17.054688 11.078125 17.90625 10.933594 18.832031 C 10.785156 19.800781 10.820312 20.878906 11.117188 21.992188 C 11.667969 24.445312 13.179688 27.234375 15.574219 30.238281 C 14.066406 31.949219 12.699219 33.101562 11.371094 33.84375 C 10.414062 34.398438 9.492188 34.699219 8.570312 34.808594 C 7.574219 34.921875 6.617188 34.773438 5.769531 34.4375 C 3.964844 33.695312 2.675781 32.023438 2.417969 30.089844 C 2.304688 29.164062 2.378906 28.234375 2.746094 27.195312 C 2.855469 26.820312 3.042969 26.449219 3.226562 26.007812 C 3.484375 25.410156 3.777344 24.777344 4.074219 24.148438 L 4.113281 24.074219 C 6.652344 18.539062 9.382812 12.890625 12.222656 7.390625 L 12.332031 7.171875 C 12.628906 6.613281 12.921875 6.019531 13.214844 5.460938 C 13.511719 4.867188 13.84375 4.308594 14.25 3.828125 C 15.023438 2.933594 16.054688 2.453125 17.199219 2.453125 C 18.34375 2.453125 19.375 2.933594 20.148438 3.828125 C 20.554688 4.308594 20.882812 4.867188 21.179688 5.460938 C 21.476562 6.019531 21.769531 6.613281 22.0625 7.171875 L 22.175781 7.390625 C 24.96875 12.914062 27.664062 18.488281 30.246094 24.109375 L 30.246094 24.148438 C 30.542969 24.742188 30.804688 25.410156 31.09375 26.007812 C 31.28125 26.449219 31.464844 26.820312 31.578125 27.195312 C 31.871094 28.160156 31.980469 29.089844 31.832031 30.054688 Z M 31.832031 30.054688 "/>
</g>
</svg>
