<?xml version="1.0" encoding="UTF-8"?>
<svg xmlns="http://www.w3.org/2000/svg" xmlns:xlink="http://www.w3.org/1999/xlink" width="117pt" height="23pt" viewBox="0 0 117 23" version="1.1">
<g id="surface1">
<path style=" stroke:none;fill-rule:nonzero;fill:rgb(0%,0%,0%);fill-opacity:1;" d="M 9.15625 3.585938 C 7.785156 3.585938 7.375 4.195312 7.375 5.542969 L 7.375 7.773438 L 11.046875 7.773438 L 10.691406 11.40625 L 7.375 11.40625 L 7.375 22.394531 L 2.960938 22.394531 L 2.960938 11.40625 L 0 11.40625 L 0 7.800781 L 2.960938 7.800781 L 2.960938 5.625 C 2.960938 1.9375 4.441406 0.0078125 8.523438 0.0078125 C 9.375 0.0078125 10.253906 0.0625 11.101562 0.171875 L 11.101562 3.585938 "/>
<path style=" stroke:none;fill-rule:nonzero;fill:rgb(0%,0%,0%);fill-opacity:1;" d="M 11.347656 14.632812 C 11.347656 10.554688 13.265625 7.472656 17.324219 7.472656 C 19.519531 7.472656 20.859375 8.601562 21.515625 10.03125 L 21.515625 7.800781 L 25.742188 7.800781 L 25.742188 22.425781 L 21.492188 22.425781 L 21.492188 20.222656 C 20.886719 21.625 19.492188 22.726562 17.296875 22.726562 C 13.265625 22.726562 11.320312 19.671875 11.320312 15.566406 M 15.761719 15.621094 C 15.761719 17.796875 16.554688 19.257812 18.613281 19.257812 C 20.421875 19.257812 21.324219 17.9375 21.324219 15.84375 L 21.324219 14.355469 C 21.324219 12.261719 20.394531 10.941406 18.613281 10.941406 C 16.554688 10.941406 15.761719 12.375 15.761719 14.574219 Z M 15.761719 15.621094 "/>
<path style=" stroke:none;fill-rule:nonzero;fill:rgb(0%,0%,0%);fill-opacity:1;" d="M 34.894531 7.472656 C 36.59375 7.472656 38.242188 7.828125 39.117188 8.460938 L 38.132812 11.601562 C 37.226562 11.164062 36.210938 10.941406 35.195312 10.941406 C 32.8125 10.941406 31.769531 12.316406 31.769531 14.683594 L 31.769531 15.539062 C 31.769531 17.910156 32.8125 19.285156 35.195312 19.285156 C 36.210938 19.285156 37.226562 19.039062 38.132812 18.597656 L 39.117188 21.738281 C 38.242188 22.34375 36.621094 22.726562 34.894531 22.726562 C 29.714844 22.726562 27.386719 19.945312 27.386719 15.457031 L 27.386719 14.769531 C 27.386719 10.277344 29.714844 7.472656 34.894531 7.472656 "/>
<path style=" stroke:none;fill-rule:nonzero;fill:rgb(0%,0%,0%);fill-opacity:1;" d="M 39.691406 15.648438 L 39.691406 14.355469 C 39.691406 10.195312 42.050781 7.472656 46.847656 7.472656 C 51.371094 7.472656 53.371094 10.226562 53.371094 14.300781 L 53.371094 16.640625 L 44.105469 16.640625 C 44.191406 18.652344 45.09375 19.53125 47.535156 19.53125 C 49.121094 19.53125 50.710938 19.230469 52.21875 18.652344 L 53.015625 21.679688 C 51.863281 22.285156 49.476562 22.757812 47.371094 22.757812 C 41.777344 22.726562 39.691406 19.945312 39.691406 15.648438 M 44.105469 13.722656 L 49.425781 13.722656 L 49.425781 13.363281 C 49.425781 11.765625 48.796875 10.5 46.847656 10.5 C 44.875 10.5 44.105469 11.765625 44.105469 13.722656 "/>
<path style=" stroke:none;fill-rule:nonzero;fill:rgb(0%,0%,0%);fill-opacity:1;" d="M 69.710938 15.566406 C 69.710938 19.644531 67.761719 22.726562 63.707031 22.726562 C 61.515625 22.726562 59.980469 21.625 59.375 20.222656 L 59.375 22.425781 L 55.207031 22.425781 L 55.207031 0.445312 L 59.625 0.0625 L 59.625 9.839844 C 60.253906 8.542969 61.679688 7.496094 63.734375 7.496094 C 67.761719 7.496094 69.738281 10.554688 69.738281 14.660156 M 65.296875 14.550781 C 65.296875 12.484375 64.503906 10.941406 62.390625 10.941406 C 60.582031 10.941406 59.625 12.234375 59.625 14.328125 L 59.625 15.871094 C 59.625 17.960938 60.609375 19.257812 62.390625 19.257812 C 64.503906 19.257812 65.296875 17.714844 65.296875 15.648438 Z M 65.296875 14.550781 "/>
<path style=" stroke:none;fill-rule:nonzero;fill:rgb(0%,0%,0%);fill-opacity:1;" d="M 71.164062 15.457031 L 71.164062 14.714844 C 71.164062 10.5 73.546875 7.472656 78.398438 7.472656 C 83.253906 7.472656 85.636719 10.5 85.636719 14.714844 L 85.636719 15.457031 C 85.636719 19.671875 83.253906 22.699219 78.398438 22.699219 C 73.546875 22.699219 71.164062 19.699219 71.164062 15.457031 M 81.25 14.410156 C 81.25 12.484375 80.453125 10.941406 78.398438 10.941406 C 76.34375 10.941406 75.546875 12.484375 75.546875 14.410156 L 75.546875 15.789062 C 75.546875 17.714844 76.34375 19.257812 78.398438 19.257812 C 80.453125 19.257812 81.25 17.714844 81.25 15.789062 Z M 81.25 14.410156 "/>
<path style=" stroke:none;fill-rule:nonzero;fill:rgb(0%,0%,0%);fill-opacity:1;" d="M 87.144531 15.457031 L 87.144531 14.714844 C 87.144531 10.5 89.53125 7.472656 94.378906 7.472656 C 99.234375 7.472656 101.617188 10.5 101.617188 14.714844 L 101.617188 15.457031 C 101.617188 19.671875 99.234375 22.699219 94.378906 22.699219 C 89.53125 22.699219 87.144531 19.699219 87.144531 15.457031 M 97.230469 14.410156 C 97.230469 12.484375 96.4375 10.941406 94.378906 10.941406 C 92.324219 10.941406 91.53125 12.484375 91.53125 14.410156 L 91.53125 15.789062 C 91.53125 17.714844 92.324219 19.257812 94.378906 19.257812 C 96.4375 19.257812 97.230469 17.714844 97.230469 15.789062 Z M 97.230469 14.410156 "/>
<path style=" stroke:none;fill-rule:nonzero;fill:rgb(0%,0%,0%);fill-opacity:1;" d="M 107.675781 14.769531 L 112.035156 7.773438 L 116.691406 7.773438 L 112.144531 15.015625 L 116.886719 22.425781 L 112.199219 22.425781 L 107.675781 15.265625 L 107.675781 22.425781 L 103.289062 22.425781 L 103.289062 0.445312 L 107.675781 0.0351562 "/>
</g>
</svg>
