<?xml version="1.0" encoding="UTF-8"?>
<svg xmlns="http://www.w3.org/2000/svg" xmlns:xlink="http://www.w3.org/1999/xlink" width="117pt" height="32pt" viewBox="0 0 117 32" version="1.1">
<g id="surface1">
<path style=" stroke:none;fill-rule:nonzero;fill:rgb(7.058824%,6.666667%,6.27451%);fill-opacity:1;" d="M 22.519531 13.582031 L 12.699219 13.582031 C 12.445312 13.585938 12.238281 13.789062 12.238281 14.042969 L 12.238281 18.863281 C 12.238281 19.121094 12.445312 19.328125 12.699219 19.328125 L 16.527344 19.328125 L 16.527344 25.320312 C 16.527344 25.320312 15.667969 25.609375 13.289062 25.609375 C 10.484375 25.609375 6.5625 24.582031 6.5625 15.929688 C 6.5625 7.269531 10.644531 6.132812 14.476562 6.132812 C 17.792969 6.132812 19.222656 6.71875 20.132812 7 C 20.417969 7.089844 20.679688 6.804688 20.679688 6.546875 L 21.777344 1.890625 C 21.777344 1.773438 21.738281 1.628906 21.601562 1.53125 C 21.230469 1.265625 18.980469 0 13.289062 0 C 6.730469 0 0.0078125 2.800781 0.0078125 16.265625 C 0.0078125 29.730469 7.707031 31.738281 14.195312 31.738281 C 19.566406 31.738281 22.828125 29.429688 22.828125 29.429688 C 22.960938 29.355469 22.976562 29.167969 22.976562 29.082031 L 22.976562 14.042969 C 22.976562 13.789062 22.773438 13.582031 22.519531 13.582031 M 73.132812 1.613281 C 73.132812 1.492188 73.082031 1.375 73 1.285156 C 72.914062 1.199219 72.796875 1.148438 72.675781 1.148438 L 67.144531 1.148438 C 66.890625 1.148438 66.683594 1.359375 66.6875 1.613281 L 66.6875 12.34375 L 58.066406 12.34375 L 58.066406 1.613281 C 58.070312 1.492188 58.019531 1.375 57.9375 1.285156 C 57.851562 1.199219 57.734375 1.148438 57.613281 1.148438 L 52.085938 1.148438 C 51.828125 1.148438 51.625 1.359375 51.628906 1.613281 L 51.628906 30.667969 C 51.628906 30.925781 51.832031 31.132812 52.085938 31.132812 L 57.613281 31.132812 C 57.863281 31.132812 58.066406 30.921875 58.066406 30.667969 L 58.066406 18.238281 L 66.6875 18.238281 L 66.671875 30.667969 C 66.671875 30.925781 66.878906 31.132812 67.132812 31.132812 L 72.675781 31.132812 C 72.925781 31.132812 73.132812 30.921875 73.132812 30.667969 L 73.132812 1.613281 M 32.953125 5.425781 C 32.953125 3.425781 31.355469 1.808594 29.386719 1.808594 C 27.417969 1.808594 25.824219 3.425781 25.824219 5.425781 C 25.824219 7.421875 27.417969 9.042969 29.386719 9.042969 C 31.355469 9.042969 32.953125 7.421875 32.953125 5.425781 M 32.558594 24.539062 L 32.558594 11.128906 C 32.558594 10.871094 32.351562 10.667969 32.097656 10.664062 L 26.589844 10.664062 C 26.335938 10.664062 26.109375 10.925781 26.109375 11.183594 L 26.109375 30.394531 C 26.109375 30.960938 26.457031 31.128906 26.914062 31.128906 L 31.878906 31.128906 C 32.425781 31.128906 32.558594 30.859375 32.558594 30.386719 L 32.558594 24.539062 M 94.144531 10.707031 L 88.660156 10.707031 C 88.410156 10.707031 88.203125 10.917969 88.203125 11.171875 L 88.203125 25.417969 C 88.203125 25.417969 86.808594 26.445312 84.832031 26.445312 C 82.851562 26.445312 82.328125 25.542969 82.328125 23.597656 L 82.328125 11.171875 C 82.328125 10.917969 82.121094 10.707031 81.871094 10.707031 L 76.300781 10.707031 C 76.050781 10.707031 75.84375 10.917969 75.84375 11.171875 L 75.84375 24.539062 C 75.84375 30.316406 79.050781 31.730469 83.464844 31.730469 C 87.082031 31.730469 90 29.71875 90 29.71875 C 90 29.71875 90.140625 30.777344 90.203125 30.90625 C 90.265625 31.027344 90.429688 31.15625 90.605469 31.15625 L 94.148438 31.140625 C 94.402344 31.140625 94.605469 30.929688 94.605469 30.675781 L 94.605469 11.171875 C 94.605469 10.917969 94.398438 10.707031 94.144531 10.707031 M 106.976562 26.425781 C 105.074219 26.367188 103.785156 25.5 103.785156 25.5 L 103.785156 16.300781 C 103.785156 16.300781 105.058594 15.515625 106.621094 15.375 C 108.597656 15.199219 110.5 15.796875 110.5 20.53125 C 110.5 25.523438 109.644531 26.507812 106.976562 26.425781 Z M 109.144531 10.054688 C 106.027344 10.054688 103.90625 11.453125 103.90625 11.453125 L 103.90625 1.613281 C 103.90625 1.355469 103.703125 1.148438 103.449219 1.148438 L 97.90625 1.148438 C 97.652344 1.148438 97.449219 1.359375 97.449219 1.613281 L 97.449219 30.667969 C 97.449219 30.925781 97.65625 31.132812 97.90625 31.132812 L 101.753906 31.132812 C 101.929688 31.132812 102.058594 31.042969 102.15625 30.886719 C 102.25 30.730469 102.390625 29.546875 102.390625 29.546875 C 102.390625 29.546875 104.65625 31.703125 108.949219 31.703125 C 113.988281 31.703125 116.878906 29.136719 116.878906 20.183594 C 116.878906 11.226562 112.265625 10.054688 109.144531 10.054688 M 48.449219 10.664062 L 44.300781 10.664062 L 44.296875 5.160156 C 44.296875 4.953125 44.191406 4.847656 43.949219 4.847656 L 38.296875 4.847656 C 38.074219 4.847656 37.957031 4.945312 37.957031 5.15625 L 37.957031 10.84375 C 37.957031 10.84375 35.125 11.53125 34.933594 11.585938 C 34.738281 11.640625 34.605469 11.820312 34.605469 12.027344 L 34.605469 15.601562 C 34.605469 15.859375 34.808594 16.0625 35.0625 16.0625 L 37.957031 16.0625 L 37.957031 24.660156 C 37.957031 31.046875 42.417969 31.671875 45.429688 31.671875 C 46.804688 31.671875 48.449219 31.230469 48.722656 31.128906 C 48.882812 31.066406 48.980469 30.894531 48.980469 30.710938 L 48.984375 26.78125 C 48.984375 26.523438 48.769531 26.316406 48.527344 26.316406 C 48.285156 26.316406 47.667969 26.414062 47.03125 26.414062 C 44.992188 26.414062 44.300781 25.464844 44.300781 24.234375 L 44.300781 16.0625 L 48.449219 16.0625 C 48.703125 16.0625 48.90625 15.859375 48.90625 15.601562 L 48.90625 11.125 C 48.90625 11.003906 48.859375 10.882812 48.773438 10.800781 C 48.6875 10.710938 48.570312 10.664062 48.449219 10.664062 "/>
</g>
</svg>
