<?xml version="1.0" encoding="UTF-8"?>
<svg xmlns="http://www.w3.org/2000/svg" xmlns:xlink="http://www.w3.org/1999/xlink" width="119pt" height="26pt" viewBox="0 0 119 26" version="1.1">
<g id="surface1">
<path style=" stroke:none;fill-rule:nonzero;fill:rgb(43.921569%,42.745098%,43.137255%);fill-opacity:1;" d="M 118.660156 11.589844 L 118.660156 9.484375 L 116.070312 9.484375 L 116.070312 6.203125 L 115.980469 6.230469 L 113.550781 6.980469 L 113.5 6.996094 L 113.5 9.484375 L 109.65625 9.484375 L 109.65625 8.097656 C 109.65625 7.453125 109.800781 6.957031 110.082031 6.632812 C 110.363281 6.304688 110.761719 6.140625 111.269531 6.140625 C 111.636719 6.140625 112.015625 6.226562 112.394531 6.402344 L 112.492188 6.441406 L 112.492188 4.222656 L 112.445312 4.203125 C 112.089844 4.074219 111.605469 4.007812 111.007812 4.007812 C 110.25 4.007812 109.5625 4.175781 108.964844 4.503906 C 108.367188 4.835938 107.894531 5.304688 107.566406 5.90625 C 107.238281 6.503906 107.070312 7.195312 107.070312 7.960938 L 107.070312 9.484375 L 105.265625 9.484375 L 105.265625 11.589844 L 107.070312 11.589844 L 107.070312 20.476562 L 109.65625 20.476562 L 109.65625 11.589844 L 113.5 11.589844 L 113.5 17.238281 C 113.5 19.566406 114.585938 20.742188 116.726562 20.742188 C 117.078125 20.742188 117.449219 20.703125 117.824219 20.621094 C 118.210938 20.535156 118.472656 20.453125 118.628906 20.363281 L 118.660156 20.34375 L 118.660156 18.214844 L 118.554688 18.285156 C 118.414062 18.378906 118.242188 18.457031 118.035156 18.515625 C 117.828125 18.574219 117.65625 18.601562 117.523438 18.601562 C 117.023438 18.601562 116.652344 18.464844 116.421875 18.195312 C 116.1875 17.925781 116.070312 17.449219 116.070312 16.78125 L 116.070312 11.589844 Z M 99.476562 18.601562 C 98.539062 18.601562 97.800781 18.289062 97.277344 17.667969 C 96.75 17.042969 96.484375 16.152344 96.484375 15.023438 C 96.484375 13.855469 96.75 12.941406 97.277344 12.308594 C 97.800781 11.679688 98.53125 11.359375 99.457031 11.359375 C 100.355469 11.359375 101.070312 11.664062 101.585938 12.265625 C 102.097656 12.875 102.359375 13.777344 102.359375 14.960938 C 102.359375 16.152344 102.113281 17.070312 101.628906 17.683594 C 101.148438 18.292969 100.425781 18.601562 99.476562 18.601562 M 99.59375 9.21875 C 97.800781 9.21875 96.375 9.75 95.359375 10.796875 C 94.34375 11.84375 93.832031 13.292969 93.832031 15.105469 C 93.832031 16.828125 94.332031 18.214844 95.324219 19.222656 C 96.3125 20.234375 97.664062 20.742188 99.332031 20.742188 C 101.070312 20.742188 102.46875 20.203125 103.484375 19.144531 C 104.5 18.082031 105.011719 16.644531 105.011719 14.875 C 105.011719 13.125 104.53125 11.730469 103.578125 10.726562 C 102.625 9.726562 101.285156 9.21875 99.59375 9.21875 M 89.652344 9.21875 C 88.433594 9.21875 87.425781 9.535156 86.652344 10.152344 C 85.878906 10.777344 85.484375 11.601562 85.484375 12.59375 C 85.484375 13.109375 85.566406 13.570312 85.734375 13.957031 C 85.90625 14.347656 86.164062 14.691406 86.507812 14.980469 C 86.851562 15.265625 87.382812 15.566406 88.085938 15.871094 C 88.675781 16.113281 89.117188 16.324219 89.394531 16.484375 C 89.667969 16.648438 89.859375 16.808594 89.96875 16.964844 C 90.078125 17.117188 90.132812 17.332031 90.132812 17.585938 C 90.132812 18.328125 89.585938 18.6875 88.457031 18.6875 C 88.039062 18.6875 87.5625 18.601562 87.039062 18.425781 C 86.523438 18.253906 86.035156 18.003906 85.589844 17.683594 L 85.484375 17.601562 L 85.484375 20.125 L 85.523438 20.144531 C 85.890625 20.316406 86.351562 20.460938 86.898438 20.574219 C 87.441406 20.683594 87.933594 20.742188 88.363281 20.742188 C 89.6875 20.742188 90.753906 20.425781 91.53125 19.800781 C 92.3125 19.167969 92.710938 18.332031 92.710938 17.304688 C 92.710938 16.558594 92.496094 15.925781 92.078125 15.414062 C 91.65625 14.902344 90.933594 14.4375 89.917969 14.027344 C 89.113281 13.699219 88.597656 13.425781 88.386719 13.21875 C 88.179688 13.015625 88.074219 12.730469 88.074219 12.371094 C 88.074219 12.050781 88.203125 11.792969 88.46875 11.589844 C 88.734375 11.378906 89.105469 11.273438 89.570312 11.273438 C 90 11.273438 90.441406 11.34375 90.882812 11.476562 C 91.320312 11.613281 91.707031 11.792969 92.027344 12.011719 L 92.132812 12.085938 L 92.132812 9.695312 L 92.09375 9.679688 C 91.796875 9.550781 91.40625 9.4375 90.929688 9.351562 C 90.457031 9.261719 90.023438 9.21875 89.652344 9.21875 M 78.730469 18.601562 C 77.789062 18.601562 77.046875 18.289062 76.527344 17.667969 C 76 17.042969 75.738281 16.152344 75.738281 15.023438 C 75.738281 13.855469 76 12.941406 76.527344 12.308594 C 77.046875 11.679688 77.785156 11.359375 78.710938 11.359375 C 79.609375 11.359375 80.324219 11.664062 80.835938 12.265625 C 81.351562 12.875 81.613281 13.777344 81.613281 14.960938 C 81.613281 16.152344 81.367188 17.070312 80.882812 17.683594 C 80.398438 18.292969 79.679688 18.601562 78.730469 18.601562 M 78.847656 9.21875 C 77.050781 9.21875 75.628906 9.75 74.613281 10.796875 C 73.597656 11.84375 73.082031 13.292969 73.082031 15.105469 C 73.082031 16.828125 73.582031 18.214844 74.574219 19.222656 C 75.566406 20.234375 76.917969 20.742188 78.582031 20.742188 C 80.324219 20.742188 81.71875 20.203125 82.734375 19.144531 C 83.75 18.082031 84.265625 16.644531 84.265625 14.875 C 84.265625 13.125 83.78125 11.730469 82.828125 10.726562 C 81.875 9.726562 80.535156 9.21875 78.847656 9.21875 M 69.148438 11.386719 L 69.148438 9.484375 L 66.589844 9.484375 L 66.589844 20.476562 L 69.148438 20.476562 L 69.148438 14.855469 C 69.148438 13.898438 69.367188 13.113281 69.789062 12.519531 C 70.203125 11.929688 70.761719 11.632812 71.441406 11.632812 C 71.671875 11.632812 71.929688 11.671875 72.210938 11.746094 C 72.488281 11.824219 72.691406 11.902344 72.808594 11.992188 L 72.917969 12.070312 L 72.917969 9.460938 L 72.875 9.445312 C 72.636719 9.339844 72.300781 9.292969 71.871094 9.292969 C 71.230469 9.292969 70.652344 9.5 70.160156 9.910156 C 69.730469 10.269531 69.414062 10.765625 69.179688 11.386719 Z M 62.007812 9.21875 C 60.835938 9.21875 59.785156 9.472656 58.894531 9.972656 C 58.003906 10.476562 57.3125 11.191406 56.84375 12.105469 C 56.378906 13.015625 56.140625 14.078125 56.140625 15.265625 C 56.140625 16.304688 56.367188 17.257812 56.824219 18.097656 C 57.277344 18.941406 57.921875 19.597656 58.738281 20.054688 C 59.550781 20.511719 60.496094 20.742188 61.535156 20.742188 C 62.753906 20.742188 63.789062 20.5 64.625 20.011719 L 64.65625 19.992188 L 64.65625 17.621094 L 64.550781 17.703125 C 64.171875 17.980469 63.75 18.203125 63.296875 18.359375 C 62.84375 18.519531 62.433594 18.601562 62.070312 18.601562 C 61.066406 18.601562 60.257812 18.285156 59.675781 17.660156 C 59.089844 17.03125 58.792969 16.152344 58.792969 15.042969 C 58.792969 13.929688 59.101562 13.027344 59.714844 12.359375 C 60.324219 11.695312 61.132812 11.359375 62.113281 11.359375 C 62.953125 11.359375 63.773438 11.648438 64.550781 12.214844 L 64.65625 12.292969 L 64.65625 9.796875 L 64.625 9.777344 C 64.328125 9.613281 63.933594 9.472656 63.4375 9.371094 C 62.949219 9.269531 62.464844 9.21875 62.007812 9.21875 M 54.375 9.484375 L 51.816406 9.484375 L 51.816406 20.476562 L 54.375 20.476562 Z M 53.121094 4.796875 C 52.703125 4.796875 52.335938 4.941406 52.035156 5.230469 C 51.730469 5.519531 51.574219 5.882812 51.574219 6.308594 C 51.574219 6.730469 51.730469 7.085938 52.027344 7.367188 C 52.328125 7.644531 52.695312 7.789062 53.121094 7.789062 C 53.550781 7.789062 53.921875 7.644531 54.222656 7.367188 C 54.527344 7.085938 54.679688 6.730469 54.679688 6.308594 C 54.679688 5.894531 54.53125 5.535156 54.234375 5.242188 C 53.941406 4.945312 53.566406 4.796875 53.121094 4.796875 M 46.738281 8.671875 L 46.738281 20.476562 L 49.351562 20.476562 L 49.351562 5.132812 L 45.734375 5.132812 L 41.140625 16.53125 L 36.683594 5.132812 L 32.921875 5.132812 L 32.921875 20.476562 L 35.375 20.476562 L 35.375 8.667969 L 35.460938 8.667969 L 40.167969 20.476562 L 42.019531 20.476562 L 46.65625 8.671875 Z M 46.738281 8.671875 "/>
<path style=" stroke:none;fill-rule:nonzero;fill:rgb(94.509804%,31.764706%,10.588235%);fill-opacity:1;" d="M 12.039062 12.175781 L 0 12.175781 L 0 0.0078125 L 12.039062 0.0078125 Z M 12.039062 12.175781 "/>
<path style=" stroke:none;fill-rule:nonzero;fill:rgb(50.196078%,80%,15.686275%);fill-opacity:1;" d="M 25.328125 12.175781 L 13.289062 12.175781 L 13.289062 0.0078125 L 25.328125 0.0078125 Z M 25.328125 12.175781 "/>
<path style=" stroke:none;fill-rule:nonzero;fill:rgb(0%,67.843137%,93.72549%);fill-opacity:1;" d="M 12.039062 25.613281 L 0 25.613281 L 0 13.445312 L 12.039062 13.445312 Z M 12.039062 25.613281 "/>
<path style=" stroke:none;fill-rule:nonzero;fill:rgb(98.431373%,73.72549%,3.529412%);fill-opacity:1;" d="M 25.328125 25.613281 L 13.289062 25.613281 L 13.289062 13.445312 L 25.328125 13.445312 Z M 25.328125 25.613281 "/>
</g>
</svg>
