<?xml version="1.0" encoding="UTF-8"?>
<svg xmlns="http://www.w3.org/2000/svg" xmlns:xlink="http://www.w3.org/1999/xlink" width="27pt" height="6pt" viewBox="0 0 27 6" version="1.1">
<g id="surface1">
<path style=" stroke:none;fill-rule:nonzero;fill:rgb(45.098039%,45.098039%,45.098039%);fill-opacity:1;" d="M 9.59375 3.457031 L 9.433594 3.933594 L 9.421875 3.933594 C 9.390625 3.824219 9.34375 3.660156 9.261719 3.464844 L 8.394531 1.210938 L 7.542969 1.210938 L 7.542969 4.804688 L 8.105469 4.804688 L 8.105469 2.585938 C 8.105469 2.445312 8.105469 2.289062 8.097656 2.089844 C 8.097656 1.996094 8.085938 1.921875 8.082031 1.867188 L 8.097656 1.867188 C 8.121094 2.003906 8.152344 2.105469 8.175781 2.175781 L 9.222656 4.796875 L 9.617188 4.796875 L 10.652344 2.152344 C 10.675781 2.089844 10.699219 1.96875 10.722656 1.867188 L 10.734375 1.867188 C 10.722656 2.128906 10.710938 2.367188 10.707031 2.511719 L 10.707031 4.789062 L 11.304688 4.789062 L 11.304688 1.199219 L 10.488281 1.199219 Z M 11.875 2.214844 L 12.457031 2.214844 L 12.457031 4.789062 L 11.875 4.789062 Z M 12.167969 1.125 C 12.070312 1.125 11.988281 1.164062 11.921875 1.226562 C 11.855469 1.292969 11.820312 1.378906 11.820312 1.480469 C 11.820312 1.574219 11.855469 1.660156 11.921875 1.726562 C 11.988281 1.789062 12.070312 1.824219 12.167969 1.824219 C 12.269531 1.824219 12.351562 1.785156 12.417969 1.726562 C 12.484375 1.660156 12.523438 1.574219 12.523438 1.480469 C 12.523438 1.382812 12.484375 1.296875 12.417969 1.226562 C 12.359375 1.164062 12.273438 1.125 12.167969 1.125 M 14.535156 2.191406 C 14.425781 2.167969 14.3125 2.152344 14.203125 2.152344 C 13.9375 2.152344 13.695312 2.214844 13.492188 2.335938 C 13.289062 2.457031 13.128906 2.625 13.023438 2.832031 C 12.917969 3.046875 12.863281 3.292969 12.863281 3.578125 C 12.863281 3.824219 12.917969 4.042969 13.019531 4.242188 C 13.125 4.433594 13.265625 4.59375 13.460938 4.703125 C 13.644531 4.808594 13.863281 4.867188 14.105469 4.867188 C 14.382812 4.867188 14.621094 4.804688 14.8125 4.691406 L 14.816406 4.6875 L 14.816406 4.128906 L 14.792969 4.148438 C 14.707031 4.214844 14.609375 4.269531 14.511719 4.300781 C 14.40625 4.339844 14.3125 4.359375 14.230469 4.359375 C 13.996094 4.359375 13.8125 4.289062 13.683594 4.132812 C 13.546875 3.984375 13.480469 3.78125 13.480469 3.527344 C 13.480469 3.261719 13.546875 3.050781 13.683594 2.898438 C 13.824219 2.746094 14.007812 2.667969 14.234375 2.667969 C 14.425781 2.667969 14.617188 2.730469 14.792969 2.859375 L 14.816406 2.878906 L 14.816406 2.289062 L 14.8125 2.285156 C 14.734375 2.25 14.648438 2.214844 14.535156 2.191406 M 16.460938 2.175781 C 16.320312 2.175781 16.183594 2.21875 16.066406 2.316406 C 15.964844 2.398438 15.902344 2.519531 15.84375 2.667969 L 15.835938 2.667969 L 15.835938 2.214844 L 15.253906 2.214844 L 15.253906 4.789062 L 15.835938 4.789062 L 15.835938 3.472656 C 15.835938 3.253906 15.882812 3.066406 15.980469 2.929688 C 16.082031 2.789062 16.207031 2.722656 16.359375 2.722656 C 16.414062 2.722656 16.46875 2.738281 16.535156 2.746094 C 16.597656 2.761719 16.644531 2.785156 16.675781 2.804688 L 16.699219 2.824219 L 16.699219 2.21875 L 16.683594 2.214844 C 16.644531 2.183594 16.5625 2.175781 16.460938 2.175781 M 18.054688 2.160156 C 17.644531 2.160156 17.320312 2.285156 17.089844 2.53125 C 16.855469 2.777344 16.742188 3.117188 16.742188 3.542969 C 16.742188 3.941406 16.859375 4.269531 17.085938 4.503906 C 17.308594 4.738281 17.613281 4.859375 18 4.859375 C 18.398438 4.859375 18.71875 4.734375 18.945312 4.480469 C 19.183594 4.234375 19.292969 3.894531 19.292969 3.484375 C 19.292969 3.074219 19.183594 2.746094 18.964844 2.511719 C 18.753906 2.273438 18.441406 2.160156 18.054688 2.160156 M 18.523438 4.140625 C 18.417969 4.285156 18.246094 4.355469 18.03125 4.355469 C 17.820312 4.355469 17.652344 4.285156 17.527344 4.128906 C 17.40625 3.984375 17.351562 3.777344 17.351562 3.511719 C 17.351562 3.238281 17.414062 3.027344 17.527344 2.878906 C 17.652344 2.730469 17.816406 2.652344 18.03125 2.652344 C 18.238281 2.652344 18.398438 2.722656 18.515625 2.871094 C 18.632812 3.015625 18.695312 3.222656 18.695312 3.496094 C 18.6875 3.777344 18.636719 3.996094 18.523438 4.140625 M 20.597656 3.285156 C 20.414062 3.207031 20.296875 3.144531 20.242188 3.09375 C 20.199219 3.046875 20.175781 2.980469 20.175781 2.898438 C 20.175781 2.828125 20.203125 2.761719 20.269531 2.714844 C 20.335938 2.667969 20.414062 2.644531 20.527344 2.644531 C 20.625 2.644531 20.730469 2.660156 20.828125 2.691406 C 20.925781 2.714844 21.015625 2.761719 21.089844 2.8125 L 21.109375 2.832031 L 21.109375 2.265625 L 21.097656 2.261719 C 21.03125 2.230469 20.941406 2.203125 20.832031 2.179688 C 20.722656 2.160156 20.625 2.152344 20.546875 2.152344 C 20.265625 2.152344 20.035156 2.222656 19.855469 2.375 C 19.675781 2.519531 19.59375 2.714844 19.59375 2.945312 C 19.59375 3.066406 19.609375 3.171875 19.648438 3.261719 C 19.6875 3.347656 19.75 3.433594 19.828125 3.503906 C 19.910156 3.566406 20.027344 3.640625 20.1875 3.710938 C 20.324219 3.773438 20.429688 3.820312 20.492188 3.855469 C 20.554688 3.894531 20.59375 3.933594 20.625 3.964844 C 20.648438 4.003906 20.660156 4.050781 20.660156 4.113281 C 20.660156 4.285156 20.535156 4.367188 20.28125 4.367188 C 20.179688 4.367188 20.078125 4.347656 19.957031 4.308594 C 19.832031 4.265625 19.722656 4.203125 19.625 4.132812 L 19.601562 4.117188 L 19.601562 4.707031 L 19.617188 4.710938 C 19.703125 4.753906 19.808594 4.78125 19.933594 4.8125 C 20.058594 4.835938 20.171875 4.855469 20.269531 4.855469 C 20.570312 4.855469 20.820312 4.785156 20.996094 4.632812 C 21.175781 4.480469 21.269531 4.292969 21.269531 4.046875 C 21.269531 3.871094 21.226562 3.722656 21.125 3.605469 C 20.996094 3.492188 20.832031 3.375 20.597656 3.285156 M 22.8125 2.160156 C 22.402344 2.160156 22.074219 2.285156 21.84375 2.53125 C 21.617188 2.777344 21.496094 3.117188 21.496094 3.542969 C 21.496094 3.941406 21.617188 4.269531 21.839844 4.503906 C 22.066406 4.738281 22.371094 4.859375 22.757812 4.859375 C 23.15625 4.859375 23.476562 4.734375 23.703125 4.480469 C 23.941406 4.234375 24.050781 3.894531 24.050781 3.484375 C 24.050781 3.074219 23.941406 2.746094 23.722656 2.511719 C 23.511719 2.273438 23.199219 2.160156 22.8125 2.160156 M 23.277344 4.140625 C 23.167969 4.285156 22.996094 4.355469 22.789062 4.355469 C 22.570312 4.355469 22.402344 4.285156 22.28125 4.128906 C 22.160156 3.984375 22.101562 3.777344 22.101562 3.511719 C 22.101562 3.238281 22.164062 3.027344 22.28125 2.878906 C 22.402344 2.730469 22.570312 2.652344 22.78125 2.652344 C 22.984375 2.652344 23.152344 2.722656 23.269531 2.871094 C 23.382812 3.015625 23.445312 3.222656 23.445312 3.496094 C 23.445312 3.777344 23.390625 3.996094 23.277344 4.140625 M 27.179688 2.714844 L 27.179688 2.214844 L 26.585938 2.214844 L 26.585938 1.449219 L 26.570312 1.457031 L 26.011719 1.628906 L 26 1.632812 L 26 2.214844 L 25.117188 2.214844 L 25.117188 1.886719 C 25.117188 1.738281 25.15625 1.621094 25.214844 1.550781 C 25.28125 1.472656 25.371094 1.433594 25.488281 1.433594 C 25.574219 1.433594 25.65625 1.457031 25.75 1.496094 L 25.773438 1.511719 L 25.773438 0.984375 L 25.757812 0.980469 C 25.679688 0.957031 25.574219 0.933594 25.433594 0.933594 C 25.257812 0.933594 25.101562 0.980469 24.964844 1.046875 C 24.824219 1.125 24.722656 1.234375 24.644531 1.378906 C 24.566406 1.519531 24.527344 1.675781 24.527344 1.855469 L 24.527344 2.214844 L 24.117188 2.214844 L 24.117188 2.707031 L 24.527344 2.707031 L 24.527344 4.789062 L 25.117188 4.789062 L 25.117188 2.714844 L 26 2.714844 L 26 4.035156 C 26 4.582031 26.246094 4.855469 26.742188 4.855469 C 26.824219 4.855469 26.910156 4.84375 26.988281 4.828125 C 27.074219 4.808594 27.136719 4.785156 27.171875 4.765625 L 27.179688 4.761719 L 27.179688 4.265625 L 27.15625 4.285156 C 27.121094 4.308594 27.089844 4.324219 27.035156 4.339844 C 26.988281 4.355469 26.949219 4.359375 26.917969 4.359375 C 26.800781 4.359375 26.71875 4.332031 26.660156 4.261719 C 26.609375 4.195312 26.578125 4.089844 26.578125 3.933594 L 26.578125 2.714844 Z M 27.179688 2.714844 "/>
<path style=" stroke:none;fill-rule:nonzero;fill:rgb(94.901961%,31.372549%,13.333333%);fill-opacity:1;" d="M 0 0 L 2.761719 0 L 2.761719 2.851562 L 0 2.851562 Z M 0 0 "/>
<path style=" stroke:none;fill-rule:nonzero;fill:rgb(49.803922%,72.941176%,0%);fill-opacity:1;" d="M 3.046875 0 L 5.804688 0 L 5.804688 2.851562 L 3.046875 2.851562 Z M 3.046875 0 "/>
<path style=" stroke:none;fill-rule:nonzero;fill:rgb(0%,64.313725%,93.72549%);fill-opacity:1;" d="M 0 3.148438 L 2.761719 3.148438 L 2.761719 6 L 0 6 Z M 0 3.148438 "/>
<path style=" stroke:none;fill-rule:nonzero;fill:rgb(100%,72.54902%,0%);fill-opacity:1;" d="M 3.046875 3.148438 L 5.804688 3.148438 L 5.804688 6 L 3.046875 6 Z M 3.046875 3.148438 "/>
</g>
</svg>
