<?xml version="1.0" encoding="UTF-8"?>
<svg xmlns="http://www.w3.org/2000/svg" xmlns:xlink="http://www.w3.org/1999/xlink" width="117pt" height="30pt" viewBox="0 0 117 30" version="1.1">
<g id="surface1">
<path style=" stroke:none;fill-rule:evenodd;fill:rgb(0%,0%,0%);fill-opacity:1;" d="M 37.476562 23.558594 L 38.941406 20.128906 C 40.519531 21.320312 42.621094 21.941406 44.699219 21.941406 C 46.230469 21.941406 47.203125 21.34375 47.203125 20.441406 C 47.179688 17.917969 38.023438 19.894531 37.953125 13.566406 C 37.929688 10.347656 40.757812 7.871094 44.769531 7.871094 C 47.15625 7.871094 49.535156 8.464844 51.234375 9.824219 L 49.867188 13.320312 C 48.3125 12.320312 46.375 11.605469 44.535156 11.605469 C 43.285156 11.605469 42.460938 12.203125 42.460938 12.960938 C 42.480469 15.441406 51.710938 14.082031 51.804688 20.128906 C 51.804688 23.414062 49.042969 25.726562 45.078125 25.726562 C 42.171875 25.722656 39.507812 25.03125 37.476562 23.558594 M 93.621094 18.890625 C 92.890625 20.175781 91.519531 21.054688 89.9375 21.054688 C 87.597656 21.054688 85.714844 19.152344 85.714844 16.796875 C 85.714844 14.441406 87.605469 12.535156 89.9375 12.535156 C 91.515625 12.535156 92.890625 13.417969 93.621094 14.699219 L 97.65625 12.441406 C 96.144531 9.730469 93.242188 7.871094 89.9375 7.871094 C 85.050781 7.871094 81.085938 11.871094 81.085938 16.800781 C 81.085938 21.730469 85.050781 25.730469 89.9375 25.730469 C 93.265625 25.730469 96.144531 23.898438 97.65625 21.160156 Z M 53.832031 0.464844 L 58.882812 0.464844 L 58.882812 25.390625 L 53.832031 25.390625 Z M 99.636719 0.464844 L 99.636719 25.390625 L 104.6875 25.390625 L 104.6875 17.910156 L 110.679688 25.390625 L 117.148438 25.390625 L 109.523438 16.507812 L 116.582031 8.222656 L 110.394531 8.222656 L 104.6875 15.097656 L 104.6875 0.464844 Z M 99.636719 0.464844 "/>
<path style=" stroke:none;fill-rule:nonzero;fill:rgb(0%,0%,0%);fill-opacity:1;" d="M 73.890625 18.9375 C 73.164062 20.152344 71.652344 21.054688 69.949219 21.054688 C 67.613281 21.054688 65.730469 19.152344 65.730469 16.796875 C 65.730469 14.441406 67.617188 12.535156 69.949219 12.535156 C 71.652344 12.535156 73.164062 13.488281 73.890625 14.726562 Z M 73.890625 8.226562 L 73.890625 10.246094 C 73.070312 8.84375 71.015625 7.867188 68.863281 7.867188 C 64.425781 7.867188 60.9375 11.816406 60.9375 16.773438 C 60.9375 21.726562 64.425781 25.726562 68.863281 25.726562 C 71.011719 25.726562 73.0625 24.753906 73.890625 23.34375 L 73.890625 25.367188 L 78.945312 25.367188 L 78.945312 8.226562 Z M 73.890625 8.226562 "/>
<path style=" stroke:none;fill-rule:evenodd;fill:rgb(87.843137%,11.764706%,35.294118%);fill-opacity:1;" d="M 6.253906 18.914062 C 6.253906 20.652344 4.863281 22.058594 3.140625 22.058594 C 1.417969 22.058594 0.0234375 20.648438 0.0234375 18.914062 C 0.0234375 17.179688 1.417969 15.769531 3.140625 15.769531 L 6.253906 15.769531 Z M 7.8125 18.914062 C 7.8125 17.175781 9.203125 15.769531 10.925781 15.769531 C 12.652344 15.769531 14.042969 17.175781 14.042969 18.914062 L 14.042969 26.769531 C 14.042969 28.511719 12.652344 29.914062 10.925781 29.914062 C 9.203125 29.914062 7.8125 28.511719 7.8125 26.769531 Z M 7.8125 18.914062 "/>
<path style=" stroke:none;fill-rule:evenodd;fill:rgb(21.176471%,77.254902%,94.117647%);fill-opacity:1;" d="M 10.925781 6.296875 C 9.203125 6.296875 7.8125 4.894531 7.8125 3.152344 C 7.8125 1.414062 9.203125 0.0078125 10.925781 0.0078125 C 12.652344 0.0078125 14.042969 1.414062 14.042969 3.152344 L 14.042969 6.296875 Z M 10.925781 7.890625 C 12.652344 7.890625 14.042969 9.292969 14.042969 11.035156 C 14.042969 12.773438 12.652344 14.175781 10.925781 14.175781 L 3.117188 14.175781 C 1.394531 14.175781 0 12.769531 0 11.035156 C 0 9.300781 1.394531 7.890625 3.117188 7.890625 Z M 10.925781 7.890625 "/>
<path style=" stroke:none;fill-rule:evenodd;fill:rgb(18.039216%,71.372549%,49.019608%);fill-opacity:1;" d="M 23.410156 11.035156 C 23.410156 9.292969 24.800781 7.890625 26.527344 7.890625 C 28.253906 7.890625 29.644531 9.292969 29.644531 11.035156 C 29.644531 12.773438 28.253906 14.175781 26.527344 14.175781 L 23.410156 14.175781 Z M 21.855469 11.035156 C 21.855469 12.773438 20.464844 14.175781 18.738281 14.175781 C 17.011719 14.175781 15.621094 12.773438 15.621094 11.035156 L 15.621094 3.152344 C 15.621094 1.414062 17.011719 0.0078125 18.738281 0.0078125 C 20.464844 0.0078125 21.855469 1.414062 21.855469 3.152344 Z M 21.855469 11.035156 "/>
<path style=" stroke:none;fill-rule:evenodd;fill:rgb(92.54902%,69.803922%,18.039216%);fill-opacity:1;" d="M 18.738281 23.628906 C 20.464844 23.628906 21.855469 25.03125 21.855469 26.769531 C 21.855469 28.511719 20.464844 29.914062 18.738281 29.914062 C 17.011719 29.914062 15.621094 28.511719 15.621094 26.769531 L 15.621094 23.628906 Z M 18.738281 22.058594 C 17.011719 22.058594 15.621094 20.652344 15.621094 18.914062 C 15.621094 17.175781 17.011719 15.769531 18.738281 15.769531 L 26.550781 15.769531 C 28.277344 15.769531 29.667969 17.175781 29.667969 18.914062 C 29.667969 20.652344 28.277344 22.058594 26.550781 22.058594 Z M 18.738281 22.058594 "/>
</g>
</svg>
