<?xml version="1.0" encoding="UTF-8"?>
<svg xmlns="http://www.w3.org/2000/svg" xmlns:xlink="http://www.w3.org/1999/xlink" width="170pt" height="140pt" viewBox="0 0 170 140" version="1.1">
<defs>
<filter id="alpha" filterUnits="objectBoundingBox" x="0%" y="0%" width="100%" height="100%">
  <feColorMatrix type="matrix" in="SourceGraphic" values="0 0 0 0 1 0 0 0 0 1 0 0 0 0 1 0 0 0 1 0"/>
</filter>
<mask id="mask0">
  <g filter="url(#alpha)">
<rect x="0" y="0" width="170" height="140" style="fill:rgb(0%,0%,0%);fill-opacity:0.180392;stroke:none;"/>
  </g>
</mask>
<clipPath id="clip1">
  <rect width="170" height="140"/>
</clipPath>
<g id="surface6" clip-path="url(#clip1)">
<path style=" stroke:none;fill-rule:nonzero;fill:rgb(40.784314%,88.235294%,99.215686%);fill-opacity:1;" d="M 169.796875 109.636719 C 168.839844 118.9375 164.007812 127.40625 156.492188 132.957031 C 155.808594 133.457031 155.109375 133.925781 154.390625 134.371094 C 147.203125 138.785156 138.792969 140.160156 130.269531 139.980469 C 125.527344 139.839844 120.800781 139.34375 116.136719 138.492188 L 113.382812 138.003906 C 112.464844 137.84375 111.542969 137.652344 110.625 137.464844 C 105.097656 136.367188 99.578125 135.140625 94.035156 134.285156 C 90.402344 133.699219 86.734375 133.347656 83.054688 133.222656 L 82.972656 133.222656 C 81.074219 133.171875 79.167969 133.222656 77.261719 133.339844 C 74.09375 133.59375 70.941406 134.035156 67.824219 134.664062 C 66.367188 134.929688 64.945312 135.226562 63.511719 135.519531 C 62.078125 135.8125 60.769531 136.085938 59.394531 136.351562 C 56.785156 136.839844 54.277344 137.300781 51.847656 137.652344 C 48.828125 138.101562 45.78125 138.382812 42.730469 138.488281 C 40.996094 138.546875 39.261719 138.519531 37.535156 138.40625 C 34.152344 138.195312 30.808594 137.597656 27.566406 136.621094 C 22.03125 135.996094 11.148438 130.632812 8.066406 125.675781 C 4.785156 120.382812 3.132812 114.3125 1.976562 108.222656 C 1.757812 107.054688 1.546875 105.886719 1.359375 104.722656 C 1.269531 104.1875 1.183594 103.652344 1.101562 103.125 C -0.140625 95.5 -0.6875 89.644531 1.804688 82.101562 C 6.207031 68.660156 16.554688 57.085938 29.78125 51.898438 C 37.367188 48.914062 45.820312 47.816406 52.488281 43.09375 C 63.53125 35.257812 66.449219 19.660156 76.570312 10.605469 C 84.0625 3.902344 94.492188 1.664062 104.496094 0.640625 C 112.871094 -0.21875 121.398438 -0.398438 129.65625 1.28125 C 139.289062 3.226562 150.324219 8.1875 155.335938 17.050781 C 160.703125 26.542969 162.136719 37.898438 161.238281 48.636719 C 160.632812 55.894531 158.9375 63.542969 160.558594 70.78125 C 161.886719 76.671875 165.179688 81.96875 166.785156 87.898438 C 168.703125 95 170.492188 102.316406 169.796875 109.636719 Z M 169.796875 109.636719 "/>
</g>
<linearGradient id="linear0" gradientUnits="userSpaceOnUse" x1="277.57" y1="148.16" x2="310.98" y2="31.41" gradientTransform="matrix(0.486035,0,0,-0.486432,-12.775648,159.78319)">
<stop offset="0.01" style="stop-color:rgb(0%,0%,0%);stop-opacity:1;"/>
<stop offset="0.08" style="stop-color:rgb(0%,0%,0%);stop-opacity:0.690196;"/>
<stop offset="0.21" style="stop-color:rgb(0%,0%,0%);stop-opacity:0.321569;"/>
<stop offset="1" style="stop-color:rgb(0%,0%,0%);stop-opacity:0;"/>
</linearGradient>
<linearGradient id="linear1" gradientUnits="userSpaceOnUse" x1="240.46" y1="168.79" x2="299.59" y2="96.15" gradientTransform="matrix(0.486035,0,0,-0.486432,-12.775648,159.78319)">
<stop offset="0.01" style="stop-color:rgb(0%,0%,0%);stop-opacity:1;"/>
<stop offset="0.08" style="stop-color:rgb(0%,0%,0%);stop-opacity:0.690196;"/>
<stop offset="0.21" style="stop-color:rgb(0%,0%,0%);stop-opacity:0.321569;"/>
<stop offset="1" style="stop-color:rgb(0%,0%,0%);stop-opacity:0;"/>
</linearGradient>
<linearGradient id="linear2" gradientUnits="userSpaceOnUse" x1="242.97" y1="208.75" x2="290.27" y2="103.45" gradientTransform="matrix(0.486035,0,0,-0.486432,-12.775648,159.78319)">
<stop offset="0.01" style="stop-color:rgb(0%,0%,0%);stop-opacity:1;"/>
<stop offset="0.08" style="stop-color:rgb(0%,0%,0%);stop-opacity:0.690196;"/>
<stop offset="0.21" style="stop-color:rgb(0%,0%,0%);stop-opacity:0.321569;"/>
<stop offset="1" style="stop-color:rgb(0%,0%,0%);stop-opacity:0;"/>
</linearGradient>
<linearGradient id="linear3" gradientUnits="userSpaceOnUse" x1="93.46" y1="203.16" x2="201.02" y2="80.4" gradientTransform="matrix(0.486035,0,0,-0.486432,-12.775648,159.78319)">
<stop offset="0.01" style="stop-color:rgb(0%,0%,0%);stop-opacity:1;"/>
<stop offset="0.08" style="stop-color:rgb(0%,0%,0%);stop-opacity:0.690196;"/>
<stop offset="0.21" style="stop-color:rgb(0%,0%,0%);stop-opacity:0.321569;"/>
<stop offset="1" style="stop-color:rgb(0%,0%,0%);stop-opacity:0;"/>
</linearGradient>
<linearGradient id="linear4" gradientUnits="userSpaceOnUse" x1="-1227.2" y1="-205.25" x2="-1193.25" y2="-205.25" gradientTransform="matrix(-0.486035,0,0,0.486432,-521.731989,163.815712)">
<stop offset="0" style="stop-color:rgb(89.803922%,77.254902%,83.529412%);stop-opacity:1;"/>
<stop offset="0.42" style="stop-color:rgb(91.764706%,83.137255%,81.960784%);stop-opacity:1;"/>
<stop offset="1" style="stop-color:rgb(94.117647%,91.372549%,79.607843%);stop-opacity:1;"/>
</linearGradient>
<linearGradient id="linear5" gradientUnits="userSpaceOnUse" x1="26.11" y1="5.47" x2="198.18" y2="177.53" gradientTransform="matrix(0.486035,0,0,-0.486432,-12.775648,159.78319)">
<stop offset="0.01" style="stop-color:rgb(0%,0%,0%);stop-opacity:1;"/>
<stop offset="0.08" style="stop-color:rgb(0%,0%,0%);stop-opacity:0.690196;"/>
<stop offset="0.21" style="stop-color:rgb(0%,0%,0%);stop-opacity:0.321569;"/>
<stop offset="1" style="stop-color:rgb(0%,0%,0%);stop-opacity:0;"/>
</linearGradient>
<linearGradient id="linear6" gradientUnits="userSpaceOnUse" x1="42.25" y1="98.59" x2="117.33" y2="98.59" gradientTransform="matrix(0.486035,0,0,-0.486432,-12.775648,159.78319)">
<stop offset="0" style="stop-color:rgb(0%,0%,0%);stop-opacity:0;"/>
<stop offset="0.99" style="stop-color:rgb(0%,0%,0%);stop-opacity:1;"/>
</linearGradient>
<linearGradient id="linear7" gradientUnits="userSpaceOnUse" x1="250.87" y1="222.62" x2="362.37" y2="53.68" gradientTransform="matrix(0.486035,0,0,-0.486432,-12.775648,159.78319)">
<stop offset="0.01" style="stop-color:rgb(0%,0%,0%);stop-opacity:1;"/>
<stop offset="0.08" style="stop-color:rgb(0%,0%,0%);stop-opacity:0.690196;"/>
<stop offset="0.21" style="stop-color:rgb(0%,0%,0%);stop-opacity:0.321569;"/>
<stop offset="1" style="stop-color:rgb(0%,0%,0%);stop-opacity:0;"/>
</linearGradient>
<linearGradient id="linear8" gradientUnits="userSpaceOnUse" x1="-153.53" y1="-266.7" x2="-147.12" y2="-266.7" gradientTransform="matrix(0.466594,0.131337,-0.131229,0.466975,136.796743,203.936625)">
<stop offset="0" style="stop-color:rgb(89.019608%,77.254902%,83.529412%);stop-opacity:1;"/>
<stop offset="0.42" style="stop-color:rgb(90.980392%,82.745098%,81.176471%);stop-opacity:1;"/>
<stop offset="1" style="stop-color:rgb(93.72549%,90.980392%,79.607843%);stop-opacity:1;"/>
</linearGradient>
<linearGradient id="linear9" gradientUnits="userSpaceOnUse" x1="-9.71" y1="-246.95" x2="-6.92" y2="-262.08" gradientTransform="matrix(0.486035,0,0,0.486432,105.880061,180.558702)">
<stop offset="0" style="stop-color:rgb(0.392157%,0.392157%,0.392157%);stop-opacity:0;"/>
<stop offset="0.95" style="stop-color:rgb(0.392157%,0.392157%,0.392157%);stop-opacity:1;"/>
</linearGradient>
<linearGradient id="linear10" gradientUnits="userSpaceOnUse" x1="-14.99" y1="-255.44" x2="-4.33" y2="-255.44" gradientTransform="matrix(0.486035,0,0,0.486432,105.880061,180.558702)">
<stop offset="0" style="stop-color:rgb(89.019608%,77.254902%,83.529412%);stop-opacity:1;"/>
<stop offset="0.42" style="stop-color:rgb(90.980392%,82.745098%,81.176471%);stop-opacity:1;"/>
<stop offset="1" style="stop-color:rgb(93.72549%,90.980392%,79.607843%);stop-opacity:1;"/>
</linearGradient>
<linearGradient id="linear11" gradientUnits="userSpaceOnUse" x1="-5.46" y1="-256.14" x2="-8.18" y2="-256.46" gradientTransform="matrix(0.486035,0,0,0.486432,105.880061,180.558702)">
<stop offset="0" style="stop-color:rgb(0.392157%,0.392157%,0.392157%);stop-opacity:0;"/>
<stop offset="0.95" style="stop-color:rgb(0.392157%,0.392157%,0.392157%);stop-opacity:1;"/>
</linearGradient>
<linearGradient id="linear12" gradientUnits="userSpaceOnUse" x1="39.47" y1="-214.31" x2="46.06" y2="-214.31" gradientTransform="matrix(0.486035,0,0,0.486432,105.880061,180.558702)">
<stop offset="0" style="stop-color:rgb(89.019608%,77.254902%,83.529412%);stop-opacity:1;"/>
<stop offset="0.42" style="stop-color:rgb(90.980392%,82.745098%,81.176471%);stop-opacity:1;"/>
<stop offset="1" style="stop-color:rgb(93.72549%,90.980392%,79.607843%);stop-opacity:1;"/>
</linearGradient>
<linearGradient id="linear13" gradientUnits="userSpaceOnUse" x1="41.68" y1="-212.92" x2="51.52" y2="-226.46" gradientTransform="matrix(0.486035,0,0,0.486432,105.880061,180.558702)">
<stop offset="0" style="stop-color:rgb(0.392157%,0.392157%,0.392157%);stop-opacity:0;"/>
<stop offset="0.95" style="stop-color:rgb(0.392157%,0.392157%,0.392157%);stop-opacity:1;"/>
</linearGradient>
<linearGradient id="linear14" gradientUnits="userSpaceOnUse" x1="-47.51" y1="-244.73" x2="-36.02" y2="-244.73" gradientTransform="matrix(0.481175,0.0778291,-0.0777656,0.481568,127.639845,193.74101)">
<stop offset="0" style="stop-color:rgb(89.019608%,77.254902%,83.529412%);stop-opacity:1;"/>
<stop offset="0.42" style="stop-color:rgb(90.980392%,82.745098%,81.176471%);stop-opacity:1;"/>
<stop offset="1" style="stop-color:rgb(93.72549%,90.980392%,79.607843%);stop-opacity:1;"/>
</linearGradient>
<linearGradient id="linear15" gradientUnits="userSpaceOnUse" x1="39.47" y1="-249.9" x2="46.06" y2="-249.9" gradientTransform="matrix(0.486035,0,0,0.486432,105.880061,180.558702)">
<stop offset="0" style="stop-color:rgb(89.019608%,77.254902%,83.529412%);stop-opacity:1;"/>
<stop offset="0.42" style="stop-color:rgb(90.980392%,82.745098%,81.176471%);stop-opacity:1;"/>
<stop offset="1" style="stop-color:rgb(93.72549%,90.980392%,79.607843%);stop-opacity:1;"/>
</linearGradient>
<linearGradient id="linear16" gradientUnits="userSpaceOnUse" x1="41.68" y1="-248.51" x2="51.52" y2="-262.05" gradientTransform="matrix(0.486035,0,0,0.486432,105.880061,180.558702)">
<stop offset="0" style="stop-color:rgb(0.392157%,0.392157%,0.392157%);stop-opacity:0;"/>
<stop offset="0.95" style="stop-color:rgb(0.392157%,0.392157%,0.392157%);stop-opacity:1;"/>
</linearGradient>
<linearGradient id="linear17" gradientUnits="userSpaceOnUse" x1="-53.18" y1="-279.77" x2="-41.69" y2="-279.77" gradientTransform="matrix(0.481175,0.0778291,-0.0777656,0.481568,127.639845,193.74101)">
<stop offset="0" style="stop-color:rgb(89.019608%,77.254902%,83.529412%);stop-opacity:1;"/>
<stop offset="0.42" style="stop-color:rgb(90.980392%,82.745098%,81.176471%);stop-opacity:1;"/>
<stop offset="1" style="stop-color:rgb(93.72549%,90.980392%,79.607843%);stop-opacity:1;"/>
</linearGradient>
<linearGradient id="linear18" gradientUnits="userSpaceOnUse" x1="-12.99" y1="-215.5" x2="-13.22" y2="-227.05" gradientTransform="matrix(0.486035,0,0,0.486432,105.880061,180.558702)">
<stop offset="0" style="stop-color:rgb(0.392157%,0.392157%,0.392157%);stop-opacity:0;"/>
<stop offset="0.95" style="stop-color:rgb(0.392157%,0.392157%,0.392157%);stop-opacity:1;"/>
</linearGradient>
<mask id="mask1">
  <g filter="url(#alpha)">
<rect x="0" y="0" width="170" height="140" style="fill:rgb(0%,0%,0%);fill-opacity:0.501961;stroke:none;"/>
  </g>
</mask>
<linearGradient id="linear19" gradientUnits="userSpaceOnUse" x1="-17.48" y1="-222.44" x2="-16.24" y2="-223.12" gradientTransform="matrix(0.486035,0,0,0.486432,105.880061,180.558702)">
<stop offset="0" style="stop-color:rgb(0.392157%,0.392157%,0.392157%);stop-opacity:0;"/>
<stop offset="0.95" style="stop-color:rgb(0.392157%,0.392157%,0.392157%);stop-opacity:1;"/>
</linearGradient>
<clipPath id="clip2">
  <rect width="170" height="140"/>
</clipPath>
<g id="surface9" clip-path="url(#clip2)">
<path style=" stroke:none;fill-rule:nonzero;fill:url(#linear19);" d="M 97.449219 72.164062 C 97.429688 72.121094 97.414062 72.082031 97.394531 72.046875 C 97.371094 72.007812 97.332031 71.980469 97.285156 71.980469 C 97.242188 71.992188 97.210938 72.027344 97.203125 72.070312 C 97.195312 72.113281 97.195312 72.15625 97.203125 72.195312 C 97.226562 72.28125 97.257812 72.367188 97.300781 72.445312 C 97.324219 72.496094 97.359375 72.542969 97.402344 72.582031 C 97.453125 72.613281 97.507812 72.636719 97.570312 72.648438 C 97.589844 72.660156 97.617188 72.660156 97.636719 72.648438 C 97.648438 72.636719 97.65625 72.621094 97.660156 72.605469 C 97.660156 72.53125 97.710938 72.375 97.660156 72.3125 C 97.613281 72.25 97.59375 72.3125 97.558594 72.273438 C 97.511719 72.25 97.472656 72.210938 97.449219 72.164062 Z M 97.449219 72.164062 "/>
</g>
</defs>
<g id="surface1">
<use xlink:href="#surface6" mask="url(#mask0)"/>
<path style=" stroke:none;fill-rule:nonzero;fill:rgb(40.784314%,88.235294%,99.215686%);fill-opacity:1;" d="M 153.730469 108.222656 L 153.730469 132.960938 C 153.050781 133.460938 152.351562 133.933594 151.628906 134.375 C 145.21875 138.3125 137.835938 139.828125 130.269531 139.984375 C 125.527344 139.84375 120.800781 139.347656 116.136719 138.496094 L 113.382812 138.011719 C 112.464844 137.851562 111.542969 137.65625 110.625 137.46875 L 110.625 108.222656 Z M 153.730469 108.222656 "/>
<path style=" stroke:none;fill-rule:nonzero;fill:url(#linear0);" d="M 153.730469 108.222656 L 153.730469 132.960938 C 153.050781 133.460938 152.351562 133.933594 151.628906 134.375 C 145.21875 138.3125 137.835938 139.828125 130.269531 139.984375 C 125.527344 139.84375 120.800781 139.347656 116.136719 138.496094 L 113.382812 138.011719 C 112.464844 137.851562 111.542969 137.65625 110.625 137.46875 L 110.625 108.222656 Z M 153.730469 108.222656 "/>
<path style=" stroke:none;fill-rule:nonzero;fill:rgb(40.784314%,88.235294%,99.215686%);fill-opacity:1;" d="M 133.367188 104.71875 L 111.289062 104.71875 L 107.273438 87.609375 L 129.351562 87.609375 Z M 133.367188 104.71875 "/>
<path style=" stroke:none;fill-rule:nonzero;fill:rgb(40.784314%,88.235294%,99.215686%);fill-opacity:1;" d="M 132.179688 104.71875 L 110.105469 104.71875 L 106.089844 87.609375 L 128.164062 87.609375 Z M 132.179688 104.71875 "/>
<path style=" stroke:none;fill-rule:nonzero;fill:url(#linear1);" d="M 132.179688 104.71875 L 110.105469 104.71875 L 106.089844 87.609375 L 128.164062 87.609375 Z M 132.179688 104.71875 "/>
<path style=" stroke:none;fill-rule:nonzero;fill:rgb(40.784314%,88.235294%,99.215686%);fill-opacity:1;" d="M 86.996094 43.28125 L 151.265625 43.28125 C 155.058594 43.28125 158.132812 46.359375 158.132812 50.15625 L 158.132812 86.128906 C 158.132812 89.921875 155.058594 93 151.265625 93 L 86.996094 93 C 83.203125 93 80.128906 89.921875 80.128906 86.128906 L 80.128906 50.15625 C 80.128906 46.359375 83.203125 43.28125 86.996094 43.28125 Z M 86.996094 43.28125 "/>
<path style=" stroke:none;fill-rule:nonzero;fill:rgb(29.803922%,31.372549%,42.745098%);fill-opacity:1;" d="M 85.359375 43.28125 L 149.628906 43.28125 C 153.421875 43.28125 156.496094 46.359375 156.496094 50.15625 L 156.496094 86.128906 C 156.496094 89.921875 153.421875 93 149.628906 93 L 85.359375 93 C 81.566406 93 78.492188 89.921875 78.492188 86.128906 L 78.492188 50.15625 C 78.492188 46.359375 81.566406 43.28125 85.359375 43.28125 Z M 85.359375 43.28125 "/>
<path style=" stroke:none;fill-rule:nonzero;fill:url(#linear2);" d="M 156.492188 83.136719 L 156.492188 86.121094 C 156.492188 89.917969 153.417969 92.996094 149.625 92.996094 L 85.355469 92.996094 C 81.5625 92.996094 78.488281 89.917969 78.488281 86.121094 L 78.488281 83.136719 Z M 156.492188 83.136719 "/>
<path style=" stroke:none;fill-rule:nonzero;fill:rgb(24.313725%,24.313725%,32.941176%);fill-opacity:1;" d="M 84.066406 127.957031 C 84.105469 129.757812 83.761719 131.546875 83.054688 133.203125 L 82.972656 133.203125 C 81.074219 133.152344 79.167969 133.203125 77.261719 133.320312 C 74.09375 133.574219 70.941406 134.015625 67.824219 134.644531 C 66.367188 134.910156 64.945312 135.207031 63.511719 135.5 C 62.078125 135.792969 60.769531 136.066406 59.394531 136.332031 C 56.785156 136.820312 54.277344 137.28125 51.847656 137.632812 C 48.6875 136.292969 45.867188 134.273438 43.585938 131.710938 C 43.335938 131.433594 43.097656 131.152344 42.867188 130.863281 C 42.570312 130.492188 42.289062 130.101562 42.023438 129.691406 C 41.234375 128.554688 40.71875 127.242188 40.523438 125.871094 C 40.460938 125.3125 40.480469 124.746094 40.582031 124.195312 C 40.945312 122.285156 42.339844 120.761719 43.914062 119.589844 C 44.085938 119.460938 44.253906 119.335938 44.429688 119.21875 C 47.898438 116.8125 52.058594 115.601562 56.273438 115.765625 C 56.625 115.765625 56.980469 115.796875 57.328125 115.820312 C 59.589844 115.996094 61.828125 116.382812 64.019531 116.976562 C 67.476562 117.863281 70.933594 119.101562 74.351562 120.199219 C 76.878906 120.875 79.300781 121.90625 81.539062 123.265625 C 82.179688 123.679688 82.738281 124.210938 83.1875 124.828125 C 83.769531 125.765625 84.074219 126.851562 84.066406 127.957031 Z M 84.066406 127.957031 "/>
<path style=" stroke:none;fill-rule:nonzero;fill:rgb(24.313725%,24.313725%,32.941176%);fill-opacity:1;" d="M 82.972656 133.203125 C 81.074219 133.152344 79.167969 133.203125 77.261719 133.320312 C 74.09375 133.574219 70.941406 134.015625 67.824219 134.644531 C 66.367188 134.910156 64.945312 135.207031 63.511719 135.5 C 62.078125 135.792969 60.769531 136.066406 59.394531 136.332031 C 52.039062 137.765625 45.234375 139.417969 37.660156 138.003906 C 37.210938 137.953125 36.777344 137.800781 36.390625 137.5625 C 35.933594 137.164062 35.613281 136.632812 35.472656 136.046875 C 34.417969 132.714844 34.703125 129.105469 36.265625 125.980469 C 38.113281 122.335938 41.042969 120.894531 44.46875 119.171875 C 48.421875 117.167969 51.761719 115.652344 56.3125 115.765625 C 56.664062 115.765625 57.019531 115.796875 57.367188 115.820312 C 59.617188 116.003906 61.839844 116.390625 64.019531 116.976562 C 67.421875 117.863281 70.855469 119.089844 74.222656 120.171875 C 76.753906 120.847656 79.175781 121.882812 81.414062 123.242188 C 82.058594 123.652344 82.617188 124.179688 83.066406 124.800781 C 83.640625 125.730469 83.941406 126.808594 83.9375 127.902344 C 84 129.71875 83.671875 131.527344 82.972656 133.203125 Z M 82.972656 133.203125 "/>
<path style=" stroke:none;fill-rule:nonzero;fill:rgb(24.313725%,24.313725%,32.941176%);fill-opacity:1;" d="M 94.035156 134.265625 C 90.402344 133.679688 86.734375 133.328125 83.054688 133.203125 L 82.972656 133.203125 C 81.074219 133.152344 79.167969 133.203125 77.261719 133.320312 C 74.09375 133.574219 70.941406 134.015625 67.824219 134.644531 C 66.367188 134.910156 64.945312 135.207031 63.511719 135.5 C 59.40625 134.765625 55.25 134.171875 51.1875 133.273438 C 49.164062 132.953125 47.238281 132.1875 45.546875 131.03125 C 45.121094 130.695312 44.738281 130.304688 44.40625 129.871094 C 44.257812 129.679688 44.121094 129.476562 44 129.265625 C 43.476562 128.417969 43.226562 127.429688 43.277344 126.4375 C 43.292969 126.175781 43.339844 125.914062 43.414062 125.660156 C 43.972656 124.199219 45.019531 122.980469 46.375 122.207031 C 48.433594 120.722656 50.855469 119.828125 53.382812 119.617188 C 55.078125 119.527344 56.785156 119.867188 58.457031 119.773438 C 59.964844 119.691406 61.003906 118.855469 62.347656 118.65625 C 63.367188 118.535156 64.398438 118.625 65.382812 118.921875 C 67.683594 119.554688 70.054688 120.9375 71.859375 121.839844 L 84.007812 127.914062 L 84.101562 127.957031 L 86.53125 129.171875 C 88.8125 130.222656 90.972656 131.515625 92.976562 133.03125 C 93.472656 133.292969 93.851562 133.734375 94.035156 134.265625 Z M 94.035156 134.265625 "/>
<path style=" stroke:none;fill-rule:nonzero;fill:rgb(40.784314%,88.235294%,99.215686%);fill-opacity:1;" d="M 143.007812 104.71875 L 143.007812 108.222656 L 1.976562 108.222656 C 1.757812 107.054688 1.546875 105.886719 1.359375 104.722656 Z M 143.007812 104.71875 "/>
<path style=" stroke:none;fill-rule:nonzero;fill:url(#linear3);" d="M 143.007812 104.71875 L 143.007812 108.222656 L 1.976562 108.222656 C 1.757812 107.054688 1.546875 105.886719 1.359375 104.722656 Z M 143.007812 104.71875 "/>
<path style=" stroke:none;fill-rule:nonzero;fill:url(#linear4);" d="M 71.792969 55.378906 C 70.113281 53.886719 66.59375 53.527344 64.988281 55.175781 C 63.804688 56.390625 63.726562 58.289062 63.433594 59.976562 C 63 62.40625 61.980469 64.691406 60.464844 66.636719 C 59.648438 67.675781 58.667969 68.660156 58.316406 69.929688 C 58.171875 70.339844 58.171875 70.789062 58.316406 71.199219 C 58.558594 71.632812 58.925781 71.988281 59.367188 72.214844 C 60.371094 72.945312 61.503906 73.476562 62.710938 73.773438 C 63.941406 74.058594 65.230469 73.609375 66.015625 72.621094 C 66.296875 72.199219 66.5 71.648438 66.988281 71.480469 C 67.621094 71.28125 68.1875 71.894531 68.800781 72.136719 C 69.835938 72.53125 71.023438 71.789062 71.535156 70.804688 C 71.972656 69.78125 72.238281 68.6875 72.316406 67.574219 C 72.386719 66.453125 72.898438 65.402344 73.738281 64.65625 C 74.074219 64.410156 74.5 64.222656 74.667969 63.839844 C 74.964844 63.128906 74.179688 62.480469 73.695312 61.894531 C 72.203125 59.949219 73.699219 56.972656 71.792969 55.378906 Z M 71.792969 55.378906 "/>
<path style=" stroke:none;fill-rule:nonzero;fill:rgb(24.313725%,24.313725%,32.941176%);fill-opacity:1;" d="M 71.265625 48.507812 C 69.152344 46.074219 65.917969 44.699219 63.15625 46.394531 C 62.117188 47.039062 61.292969 48.007812 60.199219 48.546875 C 59.523438 48.84375 58.816406 49.0625 58.09375 49.199219 C 56.21875 49.644531 54.273438 50.277344 53.003906 51.726562 C 51.734375 53.175781 51.496094 55.675781 52.980469 56.90625 C 52.347656 57.753906 52.421875 58.933594 53.15625 59.695312 C 53.613281 60.054688 54.097656 60.371094 54.613281 60.644531 C 56.070312 61.617188 56.070312 62.710938 55.960938 64.191406 C 55.984375 64.4375 56.085938 64.667969 56.246094 64.855469 L 57.578125 66.800781 C 58.039062 67.457031 58.652344 68.160156 59.433594 68.160156 C 60.589844 68.105469 61.183594 66.480469 62.351562 66.382812 C 62.851562 66.421875 63.34375 66.539062 63.808594 66.722656 C 64.292969 66.839844 64.957031 66.699219 65.078125 66.207031 C 63.78125 65.503906 63.253906 63.90625 63.882812 62.570312 C 64.160156 62.023438 64.855469 61.5625 65.339844 61.921875 C 65.636719 62.140625 65.710938 62.546875 65.878906 62.894531 C 66.050781 63.246094 66.539062 63.464844 66.757812 63.167969 C 67.40625 61.644531 66.71875 59.820312 67.195312 58.265625 C 67.640625 56.894531 68.875 55.929688 70.3125 55.832031 C 70.917969 55.785156 71.53125 55.910156 72.140625 55.832031 C 72.765625 55.796875 73.300781 55.363281 73.464844 54.757812 C 73.78125 52.636719 72.828125 50.292969 71.265625 48.507812 Z M 71.265625 48.507812 "/>
<path style=" stroke:none;fill-rule:nonzero;fill:rgb(40.784314%,88.235294%,99.215686%);fill-opacity:1;" d="M 55.078125 71.023438 C 54.835938 71.351562 54.753906 71.773438 54.855469 72.167969 C 55.050781 72.515625 55.429688 72.722656 55.828125 72.695312 C 58.585938 72.964844 61.460938 73.34375 64.039062 74.691406 C 64.597656 74.960938 65.332031 75.246094 65.71875 74.691406 C 65.941406 74.285156 65.941406 73.789062 65.71875 73.382812 C 65.507812 73.015625 65.21875 72.703125 64.867188 72.464844 C 63.753906 71.640625 62.585938 70.890625 61.375 70.222656 C 59.125 68.894531 56.808594 68.191406 55.078125 71.023438 Z M 55.078125 71.023438 "/>
<path style=" stroke:none;fill-rule:nonzero;fill:rgb(40.784314%,88.235294%,99.215686%);fill-opacity:1;" d="M 63.742188 116.453125 C 65.054688 119.070312 67.804688 120.664062 65.054688 123.304688 C 60.191406 127.988281 51.605469 129.957031 45.097656 129.890625 C 40.722656 129.851562 36.226562 128.851562 32.800781 126.144531 C 31.75 125.386719 30.929688 124.355469 30.429688 123.160156 C 30.179688 122.371094 30.050781 121.554688 30.039062 120.726562 C 29.179688 105.367188 34.621094 90.238281 42.300781 76.914062 C 43.761719 74.367188 45.703125 71.613281 48.589844 71.183594 C 49.632812 71.082031 50.683594 71.148438 51.707031 71.378906 C 58.523438 72.558594 65.269531 74.140625 71.902344 76.117188 C 73.507812 76.390625 74.894531 77.402344 75.644531 78.851562 L 86.136719 94.9375 C 87.652344 97.261719 89.226562 99.800781 89.054688 102.570312 C 89.042969 103.382812 88.769531 104.167969 88.277344 104.8125 C 87.476562 105.558594 86.449219 106.011719 85.359375 106.089844 C 81.535156 106.707031 77.621094 106.441406 73.917969 105.3125 C 75.988281 103.722656 75.335938 100.417969 73.972656 98.1875 C 73.046875 96.683594 71.898438 95.328125 70.570312 94.167969 C 69.6875 98.511719 68.25 102.726562 66.292969 106.703125 C 64.835938 109.679688 62.074219 113.152344 63.742188 116.453125 Z M 63.742188 116.453125 "/>
<path style=" stroke:none;fill-rule:nonzero;fill:url(#linear5);" d="M 33.851562 95.886719 C 34.117188 94.882812 34.894531 91.703125 35.847656 89.949219 C 39.644531 92.660156 42.429688 97.949219 43.832031 102.398438 C 45.238281 106.851562 46.378906 111.527344 49.234375 115.214844 L 52.324219 114.140625 L 52.898438 116.085938 C 53.355469 117.625 52.054688 119.203125 52.1875 120.761719 C 52.320312 122.316406 53.882812 123.679688 55.363281 124.089844 C 57.140625 124.574219 59.035156 124.175781 60.820312 123.703125 C 61.972656 123.480469 63.0625 123.011719 64.019531 122.328125 C 64.917969 121.589844 65.511719 120.351562 65.175781 119.238281 C 65.933594 119.710938 66.28125 120.636719 66.019531 121.492188 C 65.753906 122.320312 65.246094 123.046875 64.5625 123.582031 C 62.402344 125.480469 59.65625 126.535156 56.976562 127.550781 C 55.691406 128.066406 54.378906 128.511719 53.046875 128.890625 C 50.015625 129.691406 46.839844 129.769531 43.707031 129.863281 C 41.800781 129.90625 40.660156 129.609375 39.816406 127.722656 C 38.613281 125.03125 38.523438 121.996094 38.234375 119.058594 C 37.371094 111.234375 35.90625 103.484375 33.851562 95.886719 Z M 33.851562 95.886719 "/>
<path style=" stroke:none;fill-rule:nonzero;fill:rgb(24.313725%,24.313725%,32.941176%);fill-opacity:1;" d="M 44.25 124.070312 C 44.25 124.90625 44.230469 125.757812 44.191406 126.625 C 44.148438 127.484375 44.070312 128.363281 43.964844 129.265625 L 43.890625 129.851562 C 43.808594 130.464844 43.714844 131.082031 43.605469 131.710938 C 43.597656 131.734375 43.597656 131.757812 43.605469 131.78125 C 43.542969 132.125 43.472656 132.476562 43.40625 132.828125 C 43.703125 134.738281 43.457031 136.695312 42.707031 138.472656 C 40.972656 138.53125 39.238281 138.503906 37.507812 138.390625 C 34.136719 138.1875 30.800781 137.59375 27.566406 136.621094 C 24.257812 134.925781 21.207031 132.777344 18.5 130.234375 C 17.753906 129.59375 17.15625 128.792969 16.753906 127.894531 C 16.464844 126.921875 16.367188 125.902344 16.460938 124.890625 C 16.554688 119.257812 15.8125 113.636719 14.257812 108.222656 C 13.921875 107.042969 13.542969 105.875 13.128906 104.722656 C 12.644531 103.414062 12.15625 102.125 11.578125 100.832031 C 10.246094 97.832031 8.632812 94.902344 8.027344 91.679688 C 7.6875 89.914062 7.667969 88.101562 7.96875 86.328125 C 7.984375 86.011719 8.101562 85.710938 8.308594 85.472656 C 8.621094 85.222656 9.019531 85.109375 9.417969 85.164062 C 13.46875 85.277344 17.15625 87.597656 21.160156 88.28125 C 23.214844 88.632812 25.347656 88.539062 27.347656 89.132812 C 30.191406 89.96875 32.378906 92.050781 34.101562 94.484375 C 34.996094 95.773438 35.785156 97.132812 36.464844 98.546875 C 37.503906 100.664062 38.476562 102.6875 39.378906 104.65625 C 39.90625 105.835938 40.398438 107 40.839844 108.152344 C 42.335938 111.777344 43.375 115.574219 43.933594 119.453125 L 43.933594 119.527344 C 44.136719 121.03125 44.242188 122.550781 44.25 124.070312 Z M 44.25 124.070312 "/>
<path style=" stroke:none;fill-rule:nonzero;fill:url(#linear6);" d="M 44.25 124.070312 C 44.25 124.90625 44.230469 125.757812 44.191406 126.625 C 44.148438 127.484375 44.070312 128.363281 43.964844 129.265625 L 43.890625 129.851562 C 43.808594 130.464844 43.714844 131.082031 43.605469 131.710938 C 43.597656 131.734375 43.597656 131.757812 43.605469 131.78125 C 43.542969 132.125 43.472656 132.476562 43.40625 132.828125 C 43.703125 134.738281 43.457031 136.695312 42.707031 138.472656 C 40.972656 138.53125 39.238281 138.503906 37.507812 138.390625 C 34.136719 138.1875 30.800781 137.59375 27.566406 136.621094 C 24.257812 134.925781 21.207031 132.777344 18.5 130.234375 C 17.753906 129.59375 17.15625 128.792969 16.753906 127.894531 C 16.464844 126.921875 16.367188 125.902344 16.460938 124.890625 C 16.554688 119.257812 15.8125 113.636719 14.257812 108.222656 C 13.921875 107.042969 13.542969 105.875 13.128906 104.722656 C 12.644531 103.414062 12.15625 102.125 11.578125 100.832031 C 10.246094 97.832031 8.632812 94.902344 8.027344 91.679688 C 7.6875 89.914062 7.667969 88.101562 7.96875 86.328125 C 7.984375 86.011719 8.101562 85.710938 8.308594 85.472656 C 8.621094 85.222656 9.019531 85.109375 9.417969 85.164062 C 13.46875 85.277344 17.15625 87.597656 21.160156 88.28125 C 23.214844 88.632812 25.347656 88.539062 27.347656 89.132812 C 30.191406 89.96875 32.378906 92.050781 34.101562 94.484375 C 34.996094 95.773438 35.785156 97.132812 36.464844 98.546875 C 37.503906 100.664062 38.476562 102.6875 39.378906 104.65625 C 39.90625 105.835938 40.398438 107 40.839844 108.152344 C 42.335938 111.777344 43.375 115.574219 43.933594 119.453125 L 43.933594 119.527344 C 44.136719 121.03125 44.242188 122.550781 44.25 124.070312 Z M 44.25 124.070312 "/>
<path style=" stroke:none;fill-rule:nonzero;fill:rgb(40.784314%,88.235294%,99.215686%);fill-opacity:1;" d="M 122.964844 104.71875 L 167.847656 104.71875 L 167.847656 108.214844 L 122.964844 108.214844 Z M 122.964844 104.71875 "/>
<path style=" stroke:none;fill-rule:nonzero;fill:url(#linear7);" d="M 122.964844 104.71875 L 167.847656 104.71875 L 167.847656 108.214844 L 122.964844 108.214844 Z M 122.964844 104.71875 "/>
<path style=" stroke:none;fill-rule:nonzero;fill:rgb(40.784314%,88.235294%,99.215686%);fill-opacity:1;" d="M 156.492188 108.222656 L 156.492188 132.960938 C 155.808594 133.460938 155.109375 133.933594 154.390625 134.375 C 143.210938 141.242188 129.054688 140.757812 116.136719 138.496094 L 113.382812 138.011719 L 113.382812 108.222656 Z M 156.492188 108.222656 "/>
<path style=" stroke:none;fill-rule:nonzero;fill:rgb(100%,100%,100%);fill-opacity:1;" d="M 89.078125 48.054688 L 113.140625 48.054688 L 113.140625 63.730469 L 89.078125 63.730469 Z M 89.078125 48.054688 "/>
<path style=" stroke:none;fill-rule:nonzero;fill:rgb(40.784314%,88.235294%,99.215686%);fill-opacity:1;" d="M 94.210938 62.6875 C 95.191406 61.117188 96.9375 60.1875 98.789062 60.253906 C 99.425781 60.253906 100.066406 60.296875 100.699219 60.296875 C 102.527344 60.296875 105.277344 59.660156 106.851562 60.601562 C 107.503906 60.984375 108.046875 62.726562 108.367188 63.417969 C 108.457031 63.542969 108.464844 63.707031 108.394531 63.84375 C 108.300781 63.964844 108.160156 63.957031 108.027344 63.957031 C 104.785156 63.921875 101.554688 63.957031 98.308594 63.957031 L 93.757812 63.957031 C 93.796875 63.5 93.953125 63.0625 94.210938 62.6875 Z M 94.210938 62.6875 "/>
<path style=" stroke:none;fill-rule:nonzero;fill:url(#linear8);" d="M 100.578125 61.039062 C 100.722656 61.148438 100.886719 61.238281 101.0625 61.296875 C 101.421875 61.441406 101.816406 61.492188 102.199219 61.445312 C 102.589844 61.386719 102.914062 61.113281 103.042969 60.742188 C 103.082031 60.546875 103.082031 60.347656 103.042969 60.152344 L 102.964844 59.453125 C 102.953125 59.101562 102.867188 58.761719 102.710938 58.449219 C 102.390625 57.949219 101.761719 57.742188 101.210938 57.964844 C 100.859375 58.136719 100.585938 58.429688 100.429688 58.785156 C 100.082031 59.578125 99.804688 60.40625 100.578125 61.039062 Z M 100.578125 61.039062 "/>
<path style=" stroke:none;fill-rule:nonzero;fill:url(#linear9);" d="M 102.726562 58.449219 C 102.726562 58.449219 101.988281 60.582031 100.917969 60.582031 C 99.847656 60.582031 100.128906 59.542969 100.128906 59.542969 Z M 102.726562 58.449219 "/>
<path style=" stroke:none;fill-rule:nonzero;fill:url(#linear10);" d="M 98.65625 57.59375 C 98.75 57.964844 98.925781 58.304688 99.046875 58.664062 C 99.09375 58.832031 99.160156 58.996094 99.246094 59.148438 C 99.398438 59.367188 99.617188 59.523438 99.867188 59.601562 C 100.40625 59.796875 101 59.777344 101.523438 59.550781 C 102.234375 59.199219 102.773438 58.578125 103.023438 57.828125 C 103.289062 57.09375 103.757812 56.367188 103.777344 55.574219 C 103.777344 55.238281 103.371094 54.835938 103.253906 54.519531 C 103.109375 54.183594 102.890625 53.882812 102.613281 53.644531 C 102.390625 53.40625 102.132812 53.203125 101.847656 53.046875 C 101.105469 52.75 100.265625 52.851562 99.613281 53.3125 C 99.390625 53.433594 99.191406 53.601562 99.03125 53.800781 C 98.652344 54.320312 98.710938 54.957031 98.707031 55.566406 C 98.703125 56.265625 98.488281 56.902344 98.65625 57.59375 Z M 98.65625 57.59375 "/>
<path style=" stroke:none;fill-rule:nonzero;fill:rgb(86.666667%,50.196078%,28.627451%);fill-opacity:1;" d="M 97.761719 54.023438 C 97.578125 53.640625 97.460938 53.226562 97.417969 52.800781 C 97.382812 52.703125 97.382812 52.597656 97.417969 52.5 C 97.484375 52.359375 97.667969 52.316406 97.773438 52.203125 C 98 51.960938 97.820312 51.570312 97.835938 51.230469 C 97.882812 50.84375 98.140625 50.511719 98.507812 50.371094 C 98.871094 50.238281 99.253906 50.171875 99.640625 50.179688 C 100.152344 50.085938 100.679688 50.210938 101.097656 50.527344 C 101.292969 50.71875 101.394531 51.011719 101.582031 51.171875 C 102.027344 51.539062 102.695312 51.300781 103.253906 51.429688 C 103.753906 51.542969 104.136719 51.945312 104.226562 52.445312 C 104.304688 52.933594 104.117188 53.484375 104.394531 53.90625 C 104.5 54.019531 104.59375 54.144531 104.667969 54.28125 C 104.714844 54.441406 104.699219 54.617188 104.625 54.765625 C 104.414062 55.402344 104.121094 56.007812 103.757812 56.570312 C 103.695312 56.683594 103.601562 56.78125 103.492188 56.847656 C 103.378906 56.90625 103.175781 57.59375 103.109375 57.488281 C 103.039062 57.089844 103.078125 56.683594 103.214844 56.304688 C 103.34375 56.1875 103.445312 56.050781 103.523438 55.894531 C 103.539062 55.765625 103.507812 55.636719 103.429688 55.535156 C 103.351562 55.429688 103.234375 55.363281 103.105469 55.347656 C 102.957031 55.328125 102.8125 55.375 102.707031 55.476562 C 102.832031 54.699219 102.414062 53.78125 101.640625 53.621094 C 101.175781 53.566406 100.707031 53.664062 100.300781 53.898438 C 99.40625 54.300781 98.449219 55.253906 97.761719 54.023438 Z M 97.761719 54.023438 "/>
<path style=" stroke:none;fill-rule:nonzero;fill:url(#linear11);" d="M 102.996094 55.613281 C 103.007812 55.578125 103.035156 55.550781 103.070312 55.535156 C 103.113281 55.535156 103.152344 55.550781 103.1875 55.574219 C 103.25 55.605469 103.300781 55.660156 103.324219 55.726562 C 103.339844 55.773438 103.339844 55.828125 103.324219 55.875 C 103.300781 55.980469 103.261719 56.078125 103.207031 56.167969 C 103.152344 56.261719 103.058594 56.324219 102.953125 56.339844 C 102.90625 56.339844 102.832031 56.226562 102.832031 56.183594 C 102.832031 56.140625 102.882812 56.113281 102.902344 56.070312 C 102.960938 55.933594 102.902344 55.765625 102.996094 55.613281 Z M 102.996094 55.613281 "/>
<path style=" stroke:none;fill-rule:nonzero;fill:rgb(100%,100%,100%);fill-opacity:1;" d="M 115.347656 48.167969 L 139.410156 48.167969 L 139.410156 63.84375 L 115.347656 63.84375 Z M 115.347656 48.167969 "/>
<path style=" stroke:none;fill-rule:nonzero;fill:rgb(100%,100%,100%);fill-opacity:1;" d="M 115.347656 65.652344 L 139.410156 65.652344 L 139.410156 81.332031 L 115.347656 81.332031 Z M 115.347656 65.652344 "/>
<path style=" stroke:none;fill-rule:nonzero;fill:rgb(100%,100%,100%);fill-opacity:1;" d="M 89.078125 65.652344 L 113.140625 65.652344 L 113.140625 81.332031 L 89.078125 81.332031 Z M 89.078125 65.652344 "/>
<path style=" stroke:none;fill-rule:nonzero;fill:rgb(37.647059%,38.039216%,38.039216%);fill-opacity:1;" d="M 124.882812 67.226562 C 125.777344 66.953125 126.726562 66.902344 127.644531 67.078125 C 128.167969 67.121094 128.675781 67.269531 129.140625 67.511719 C 129.988281 68 130.410156 69.015625 130.601562 69.976562 C 130.71875 70.957031 130.914062 71.921875 131.191406 72.867188 C 131.605469 73.929688 132.421875 74.8125 132.699219 75.921875 C 133.140625 77.707031 132.054688 79.515625 130.269531 79.960938 C 130 80.027344 129.722656 80.058594 129.441406 80.058594 C 128.734375 80.058594 128.042969 79.824219 127.332031 79.824219 C 125.875 79.824219 124.472656 80.824219 123.035156 80.535156 C 121.859375 80.289062 121.019531 79.226562 120.539062 78.101562 C 120.191406 77.433594 120.097656 76.664062 120.273438 75.933594 C 120.59375 74.960938 121.617188 74.394531 122.074219 73.5 C 122.652344 72.355469 122.21875 71 122.714844 69.835938 C 123.167969 68.777344 123.707031 67.648438 124.882812 67.226562 Z M 124.882812 67.226562 "/>
<path style=" stroke:none;fill-rule:nonzero;fill:rgb(40.784314%,88.235294%,99.215686%);fill-opacity:1;" d="M 129.929688 76.601562 C 130.714844 76.757812 131.601562 76.6875 132.242188 77.148438 C 132.625 77.449219 132.890625 77.878906 132.980469 78.359375 C 133.0625 78.832031 133.085938 79.3125 133.050781 79.789062 L 132.996094 81.199219 C 133 81.25 132.988281 81.304688 132.957031 81.347656 C 132.910156 81.378906 132.851562 81.390625 132.792969 81.386719 L 120.640625 81.429688 C 120.425781 80.652344 120.539062 79.820312 120.957031 79.132812 C 121.261719 78.53125 121.675781 77.992188 122.183594 77.546875 C 122.921875 76.988281 124.640625 76.9375 125.453125 76.476562 C 125.667969 76.359375 125.453125 76.191406 125.710938 76.125 C 125.96875 76.0625 125.847656 75.785156 126.078125 75.78125 C 126.792969 75.722656 127.507812 75.753906 128.214844 75.875 C 128.8125 76.046875 129.28125 76.472656 129.929688 76.601562 Z M 129.929688 76.601562 "/>
<path style=" stroke:none;fill-rule:nonzero;fill:url(#linear12);" d="M 125.179688 77.011719 C 125.117188 77.207031 125.078125 77.40625 125.0625 77.609375 C 125.058594 78.078125 125.304688 78.515625 125.707031 78.757812 C 126.109375 78.992188 126.605469 79.019531 127.03125 78.828125 C 127.488281 78.59375 127.835938 78.191406 128.003906 77.707031 C 128.175781 77.226562 128.257812 76.714844 128.253906 76.203125 C 128.269531 75.523438 128.226562 74.84375 128.128906 74.171875 C 128.152344 74.0625 128.128906 73.949219 128.0625 73.855469 C 128 73.765625 127.902344 73.703125 127.789062 73.683594 L 127.6875 73.683594 C 126.867188 73.566406 126.066406 74.019531 125.746094 74.785156 C 125.664062 75.03125 125.609375 75.289062 125.578125 75.546875 C 125.472656 76.042969 125.339844 76.53125 125.179688 77.011719 Z M 125.179688 77.011719 "/>
<path style=" stroke:none;fill-rule:nonzero;fill:url(#linear13);" d="M 125.480469 75.980469 C 125.480469 75.980469 125.410156 76.601562 125.691406 76.835938 C 125.972656 77.070312 127.085938 77.609375 127.636719 76.835938 C 127.972656 76.339844 128.1875 75.773438 128.273438 75.179688 Z M 125.480469 75.980469 "/>
<path style=" stroke:none;fill-rule:nonzero;fill:url(#linear14);" d="M 123.941406 73.929688 C 124.082031 74.386719 124.941406 75.996094 126.125 76.289062 C 128.675781 76.917969 129.449219 72.429688 129.320312 71.484375 C 129.152344 70.699219 128.742188 69.984375 128.148438 69.4375 C 127.488281 68.921875 126.59375 68.820312 125.832031 69.171875 C 123.828125 70.027344 123.3125 71.976562 123.941406 73.929688 Z M 123.941406 73.929688 "/>
<path style=" stroke:none;fill-rule:nonzero;fill:rgb(37.647059%,38.039216%,38.039216%);fill-opacity:1;" d="M 123.113281 71.421875 C 123.160156 71.617188 123.3125 71.773438 123.507812 71.816406 C 123.722656 71.808594 123.933594 71.75 124.121094 71.648438 C 124.363281 71.574219 124.605469 71.601562 124.875 71.511719 C 125.140625 71.417969 125.308594 71.121094 125.164062 70.917969 C 125.09375 71.226562 125.507812 71.433594 125.820312 71.402344 C 126.128906 71.3125 126.449219 71.292969 126.765625 71.34375 L 126.886719 70.722656 C 126.851562 70.988281 127.007812 71.242188 127.261719 71.335938 C 127.507812 71.417969 127.777344 71.417969 128.023438 71.335938 C 128.136719 71.304688 128.273438 71.21875 128.226562 71.113281 C 128.484375 71.421875 128.980469 71.292969 129.355469 71.113281 C 129.414062 71.09375 129.46875 71.050781 129.5 71 C 129.527344 70.9375 129.527344 70.867188 129.5 70.804688 C 129.367188 70.195312 129.152344 69.609375 128.855469 69.058594 C 128.542969 68.503906 128.015625 68.105469 127.398438 67.960938 C 127.042969 67.914062 126.679688 67.933594 126.332031 68.019531 C 125.40625 68.160156 124.5625 68.636719 123.957031 69.355469 C 123.519531 69.875 122.925781 70.765625 123.113281 71.421875 Z M 123.113281 71.421875 "/>
<path style=" stroke:none;fill-rule:nonzero;fill:rgb(98.431373%,69.019608%,23.137255%);fill-opacity:1;" d="M 124.882812 49.90625 C 125.78125 49.640625 126.726562 49.59375 127.644531 49.765625 C 128.167969 49.808594 128.675781 49.957031 129.140625 50.199219 C 130.628906 51.082031 130.277344 52.339844 130.414062 53.714844 C 130.4375 54.175781 130.703125 54.589844 131.109375 54.804688 C 131.390625 54.929688 131.730469 54.914062 131.96875 55.109375 C 132.21875 55.367188 132.308594 55.738281 132.199219 56.082031 C 132.117188 56.417969 131.949219 56.726562 131.882812 57.054688 C 131.847656 57.1875 131.863281 57.328125 131.925781 57.449219 C 132.027344 57.597656 132.238281 57.621094 132.414062 57.691406 C 132.816406 57.902344 133.078125 58.3125 133.109375 58.765625 C 133.167969 59.207031 133.109375 59.65625 133.140625 60.105469 C 133.191406 60.382812 133.214844 60.664062 133.214844 60.945312 C 133.15625 61.804688 132.296875 62.4375 131.4375 62.550781 C 130.570312 62.589844 129.703125 62.433594 128.902344 62.097656 C 128.101562 61.761719 127.234375 61.621094 126.367188 61.6875 C 125.441406 61.839844 124.464844 62.441406 123.648438 61.992188 C 123.183594 61.6875 122.90625 61.164062 122.914062 60.605469 C 122.933594 60.058594 123.046875 59.515625 123.25 59.007812 C 123.328125 58.851562 123.34375 58.667969 123.292969 58.5 C 123.214844 58.375 123.105469 58.269531 122.980469 58.191406 C 121.78125 57.261719 122.21875 53.730469 122.726562 52.53125 C 123.167969 51.464844 123.707031 50.335938 124.882812 49.90625 Z M 124.882812 49.90625 "/>
<path style=" stroke:none;fill-rule:nonzero;fill:rgb(40.784314%,88.235294%,99.215686%);fill-opacity:1;" d="M 129.929688 59.292969 C 130.714844 59.445312 131.601562 59.375 132.242188 59.835938 C 132.625 60.136719 132.890625 60.566406 132.980469 61.046875 C 133.0625 61.53125 133.078125 62.019531 133.035156 62.507812 L 132.980469 63.917969 C 132.984375 63.96875 132.972656 64.015625 132.941406 64.058594 C 132.894531 64.09375 132.835938 64.109375 132.777344 64.101562 L 120.625 64.144531 C 120.410156 63.371094 120.523438 62.539062 120.941406 61.851562 C 121.246094 61.25 121.664062 60.710938 122.167969 60.265625 C 122.90625 59.703125 124.625 59.65625 125.4375 59.195312 C 125.652344 59.078125 125.4375 58.90625 125.695312 58.84375 C 125.953125 58.78125 125.832031 58.503906 126.066406 58.5 C 126.777344 58.441406 127.492188 58.472656 128.199219 58.589844 C 128.8125 58.738281 129.28125 59.160156 129.929688 59.292969 Z M 129.929688 59.292969 "/>
<path style=" stroke:none;fill-rule:nonzero;fill:url(#linear15);" d="M 125.179688 59.699219 C 125.117188 59.894531 125.078125 60.09375 125.0625 60.296875 C 125.058594 60.769531 125.304688 61.203125 125.707031 61.445312 C 126.109375 61.679688 126.605469 61.707031 127.03125 61.515625 C 127.488281 61.28125 127.835938 60.878906 128.003906 60.394531 C 128.175781 59.914062 128.257812 59.402344 128.253906 58.890625 C 128.269531 58.210938 128.226562 57.53125 128.128906 56.859375 C 128.152344 56.75 128.128906 56.636719 128.0625 56.542969 C 128 56.453125 127.902344 56.390625 127.789062 56.371094 L 127.6875 56.371094 C 126.867188 56.253906 126.066406 56.707031 125.746094 57.472656 C 125.664062 57.71875 125.609375 57.976562 125.578125 58.234375 C 125.472656 58.730469 125.339844 59.21875 125.179688 59.699219 Z M 125.179688 59.699219 "/>
<path style=" stroke:none;fill-rule:nonzero;fill:url(#linear16);" d="M 125.480469 58.667969 C 125.480469 58.667969 125.410156 59.292969 125.691406 59.523438 C 125.972656 59.757812 127.085938 60.296875 127.636719 59.523438 C 127.972656 59.027344 128.1875 58.460938 128.273438 57.867188 Z M 125.480469 58.667969 "/>
<path style=" stroke:none;fill-rule:nonzero;fill:url(#linear17);" d="M 123.941406 56.617188 C 124.082031 57.074219 124.941406 58.683594 126.125 58.976562 C 128.675781 59.605469 129.449219 55.117188 129.320312 54.175781 C 129.152344 53.386719 128.742188 52.671875 128.148438 52.125 C 127.488281 51.609375 126.59375 51.507812 125.832031 51.859375 C 123.828125 52.714844 123.3125 54.664062 123.941406 56.617188 Z M 123.941406 56.617188 "/>
<path style=" stroke:none;fill-rule:nonzero;fill:rgb(40.784314%,88.235294%,99.215686%);fill-opacity:1;" d="M 96.097656 75.542969 C 97.125 75.152344 98.21875 74.964844 99.320312 74.992188 C 100.519531 74.945312 101.808594 74.929688 102.804688 75.449219 C 103.269531 75.714844 103.6875 76.054688 104.046875 76.453125 C 104.179688 76.570312 104.292969 76.710938 104.382812 76.867188 C 104.464844 77.058594 104.496094 77.269531 104.480469 77.480469 L 104.480469 80.328125 C 104.496094 80.519531 104.464844 80.707031 104.382812 80.878906 C 104.121094 81.367188 105.039062 81.367188 104.382812 81.367188 L 93.410156 81.367188 C 93.582031 81.367188 93.769531 79.742188 93.761719 79.574219 C 93.761719 79.011719 93.589844 78.53125 93.859375 78 C 94.300781 76.949219 95.089844 76.082031 96.097656 75.542969 Z M 96.097656 75.542969 "/>
<path style=" stroke:none;fill-rule:nonzero;fill:rgb(65.098039%,48.627451%,32.156863%);fill-opacity:1;" d="M 98.8125 76.554688 C 99.148438 76.832031 99.582031 76.964844 100.019531 76.925781 C 100.558594 76.792969 100.949219 76.328125 100.992188 75.777344 C 101.0625 75.265625 100.945312 74.742188 100.992188 74.21875 C 101.039062 73.898438 101.039062 73.570312 100.992188 73.246094 C 100.792969 72.734375 100.328125 72.375 99.78125 72.316406 C 99.238281 72.253906 98.695312 72.453125 98.320312 72.851562 C 97.8125 73.421875 97.96875 74.101562 97.941406 74.796875 C 97.9375 75.488281 98.261719 76.140625 98.8125 76.554688 Z M 98.8125 76.554688 "/>
<path style=" stroke:none;fill-rule:nonzero;fill:url(#linear18);" d="M 98.078125 74.171875 C 98.078125 74.171875 98.652344 75.835938 99.757812 75.835938 C 100.859375 75.835938 101.015625 75.273438 101.015625 75.273438 L 100.964844 74.378906 Z M 98.078125 74.171875 "/>
<path style=" stroke:none;fill-rule:nonzero;fill:rgb(65.098039%,48.627451%,32.156863%);fill-opacity:1;" d="M 102.046875 72.167969 C 102.03125 72.664062 101.949219 73.152344 101.800781 73.625 C 101.65625 74.097656 101.359375 74.507812 100.960938 74.796875 C 100.378906 75.167969 99.648438 75.222656 99.015625 74.945312 C 98.378906 74.664062 97.863281 74.164062 97.558594 73.539062 C 97.238281 72.933594 97.039062 72.273438 96.972656 71.59375 C 96.921875 71.070312 97.015625 70.542969 97.25 70.070312 C 97.523438 69.59375 97.980469 69.242188 98.511719 69.097656 C 99.039062 68.953125 99.585938 68.898438 100.128906 68.933594 C 100.574219 68.917969 101.019531 69 101.429688 69.179688 C 101.878906 69.375 102.144531 69.851562 102.078125 70.339844 C 101.988281 70.90625 102.078125 71.554688 102.046875 72.167969 Z M 102.046875 72.167969 "/>
<path style=" stroke:none;fill-rule:nonzero;fill:rgb(37.647059%,38.039216%,38.039216%);fill-opacity:1;" d="M 97.683594 71.925781 C 97.542969 71.851562 97.464844 71.660156 97.3125 71.648438 C 97.210938 71.644531 97.121094 71.703125 97.082031 71.792969 C 97.054688 71.886719 97.054688 71.984375 97.082031 72.078125 C 97.121094 72.304688 97.238281 72.515625 97.410156 72.667969 C 97.488281 72.722656 97.554688 72.796875 97.597656 72.882812 C 97.613281 72.949219 97.613281 73.023438 97.597656 73.089844 L 97.535156 73.578125 C 97.289062 73.480469 97.097656 73.28125 97.015625 73.027344 C 96.976562 72.925781 96.9375 72.726562 96.800781 72.695312 C 96.664062 72.667969 96.574219 72.84375 96.40625 72.695312 C 96.289062 72.605469 96.257812 72.441406 96.335938 72.3125 C 96.179688 72.484375 95.847656 72.3125 95.820312 72.105469 C 95.804688 71.867188 95.9375 71.648438 96.148438 71.550781 C 95.898438 71.476562 95.710938 71.269531 95.664062 71.015625 C 95.636719 70.785156 95.804688 70.578125 96.03125 70.550781 C 96.070312 70.546875 96.109375 70.546875 96.148438 70.550781 C 95.976562 70.332031 95.976562 70.019531 96.148438 69.796875 C 96.328125 69.585938 96.59375 69.464844 96.867188 69.46875 L 96.867188 68.726562 C 96.859375 68.558594 96.894531 68.390625 96.976562 68.242188 C 97.066406 68.109375 97.246094 68.078125 97.378906 68.167969 L 97.402344 68.167969 C 97.4375 67.824219 97.523438 67.414062 97.847656 67.292969 C 98.097656 67.242188 98.359375 67.292969 98.574219 67.433594 C 98.601562 67.125 98.824219 66.863281 99.125 66.789062 C 99.425781 66.71875 99.742188 66.785156 99.988281 66.972656 C 100.019531 67 100.054688 67.019531 100.097656 67.03125 C 100.144531 67.042969 100.199219 67.042969 100.246094 67.03125 C 100.453125 66.878906 100.714844 66.8125 100.972656 66.851562 C 101.226562 66.890625 101.457031 67.03125 101.609375 67.238281 C 101.773438 67.46875 101.832031 67.761719 101.769531 68.039062 C 101.769531 67.875 102.011719 67.867188 102.167969 67.90625 C 102.347656 67.929688 102.519531 68.011719 102.652344 68.132812 C 102.871094 68.378906 102.765625 68.761719 102.609375 69.054688 C 102.925781 69.058594 103.195312 69.296875 103.230469 69.613281 C 103.285156 70.164062 102.746094 70.171875 102.453125 70.46875 C 102.257812 70.667969 102.171875 70.957031 101.96875 71.136719 C 101.691406 71.304688 101.347656 71.320312 101.058594 71.175781 C 100.777344 71.03125 100.507812 70.867188 100.25 70.6875 C 100.125 70.59375 99.964844 70.554688 99.808594 70.570312 C 99.589844 70.617188 99.464844 70.855469 99.269531 70.964844 C 99.085938 71.050781 98.882812 71.070312 98.6875 71.019531 C 98.449219 70.96875 98.199219 70.925781 98.015625 71.144531 C 97.859375 71.382812 97.746094 71.644531 97.683594 71.925781 Z M 97.683594 71.925781 "/>
<use xlink:href="#surface9" mask="url(#mask1)"/>
<path style=" stroke:none;fill-rule:nonzero;fill:rgb(98.431373%,69.019608%,23.137255%);fill-opacity:1;" d="M 125.707031 53.523438 C 126.238281 53.679688 126.78125 53.792969 127.332031 53.863281 C 127.367188 54.183594 127.410156 54.503906 127.46875 54.835938 C 127.484375 54.96875 127.527344 55.097656 127.589844 55.214844 C 127.703125 55.378906 127.878906 55.492188 128.078125 55.527344 C 128.28125 55.554688 128.488281 55.554688 128.691406 55.527344 C 128.78125 55.507812 128.875 55.523438 128.953125 55.570312 C 128.992188 55.609375 129.019531 55.65625 129.039062 55.707031 L 129.398438 56.550781 C 129.421875 56.5625 129.445312 56.5625 129.464844 56.554688 C 129.488281 56.542969 129.503906 56.523438 129.507812 56.5 C 129.515625 56.453125 129.515625 56.40625 129.507812 56.363281 C 129.449219 56.027344 129.675781 55.722656 129.8125 55.390625 C 130.15625 54.597656 129.929688 53.679688 129.632812 52.859375 C 129.511719 52.480469 129.332031 52.125 129.101562 51.800781 C 128.511719 51.140625 127.679688 50.742188 126.792969 50.699219 C 126.359375 50.632812 125.917969 50.671875 125.5 50.8125 C 124.898438 51.074219 124.492188 51.648438 124.441406 52.304688 C 124.433594 52.980469 125.171875 53.363281 125.707031 53.523438 Z M 125.707031 53.523438 "/>
</g>
</svg>
