<?xml version="1.0" encoding="UTF-8"?>
<svg xmlns="http://www.w3.org/2000/svg" xmlns:xlink="http://www.w3.org/1999/xlink" width="262pt" height="216pt" viewBox="0 0 262 216" version="1.1">
<defs>
<filter id="alpha" filterUnits="objectBoundingBox" x="0%" y="0%" width="100%" height="100%">
  <feColorMatrix type="matrix" in="SourceGraphic" values="0 0 0 0 1 0 0 0 0 1 0 0 0 0 1 0 0 0 1 0"/>
</filter>
<mask id="mask0">
  <g filter="url(#alpha)">
<rect x="0" y="0" width="262" height="216" style="fill:rgb(0%,0%,0%);fill-opacity:0.180392;stroke:none;"/>
  </g>
</mask>
<clipPath id="clip1">
  <rect width="262" height="216"/>
</clipPath>
<g id="surface6" clip-path="url(#clip1)">
<path style=" stroke:none;fill-rule:nonzero;fill:rgb(40.784314%,88.235294%,99.215686%);fill-opacity:1;" d="M 261.691406 169.152344 C 260.214844 183.503906 252.765625 196.566406 241.179688 205.132812 C 240.132812 205.902344 239.050781 206.632812 237.945312 207.316406 C 226.867188 214.125 213.90625 216.246094 200.769531 215.96875 C 193.460938 215.753906 186.179688 214.984375 178.984375 213.671875 L 174.746094 212.921875 C 173.328125 212.675781 171.90625 212.375 170.492188 212.089844 C 161.972656 210.394531 153.464844 208.503906 144.925781 207.183594 C 139.324219 206.28125 133.671875 205.734375 128.003906 205.546875 L 127.875 205.546875 C 124.949219 205.464844 122.011719 205.546875 119.074219 205.726562 C 114.191406 206.117188 109.332031 206.796875 104.527344 207.765625 C 102.28125 208.179688 100.09375 208.636719 97.882812 209.089844 C 95.675781 209.539062 93.660156 209.957031 91.539062 210.371094 C 87.515625 211.121094 83.652344 211.835938 79.90625 212.375 C 75.25 213.070312 70.558594 213.503906 65.855469 213.664062 C 63.183594 213.757812 60.511719 213.714844 57.847656 213.539062 C 52.636719 213.214844 47.480469 212.292969 42.484375 210.785156 C 33.949219 209.824219 17.179688 201.546875 12.429688 193.898438 C 7.375 185.734375 4.828125 176.367188 3.042969 166.96875 C 2.707031 165.167969 2.386719 163.367188 2.09375 161.574219 C 1.957031 160.75 1.824219 159.921875 1.695312 159.105469 C -0.214844 147.34375 -1.058594 138.308594 2.78125 126.667969 C 9.570312 105.933594 25.515625 88.078125 45.898438 80.070312 C 57.589844 75.46875 70.617188 73.773438 80.894531 66.488281 C 97.914062 54.394531 102.40625 30.335938 118.011719 16.359375 C 129.554688 6.019531 145.628906 2.566406 161.046875 0.992188 C 173.953125 -0.335938 187.097656 -0.617188 199.824219 1.972656 C 214.671875 4.976562 231.675781 12.628906 239.398438 26.304688 C 247.675781 40.953125 249.882812 58.472656 248.5 75.042969 C 247.5625 86.238281 244.949219 98.039062 247.449219 109.203125 C 249.496094 118.292969 254.574219 126.464844 257.046875 135.613281 C 260.003906 146.570312 262.761719 157.859375 261.691406 169.152344 Z M 261.691406 169.152344 "/>
</g>
<linearGradient id="linear0" gradientUnits="userSpaceOnUse" x1="277.57" y1="148.16" x2="310.98" y2="31.41" gradientTransform="matrix(0.749066,0,0,-0.750495,-19.689528,246.522636)">
<stop offset="0.01" style="stop-color:rgb(0%,0%,0%);stop-opacity:1;"/>
<stop offset="0.08" style="stop-color:rgb(0%,0%,0%);stop-opacity:0.690196;"/>
<stop offset="0.21" style="stop-color:rgb(0%,0%,0%);stop-opacity:0.321569;"/>
<stop offset="1" style="stop-color:rgb(0%,0%,0%);stop-opacity:0;"/>
</linearGradient>
<linearGradient id="linear1" gradientUnits="userSpaceOnUse" x1="240.46" y1="168.79" x2="299.59" y2="96.15" gradientTransform="matrix(0.749066,0,0,-0.750495,-19.689528,246.522636)">
<stop offset="0.01" style="stop-color:rgb(0%,0%,0%);stop-opacity:1;"/>
<stop offset="0.08" style="stop-color:rgb(0%,0%,0%);stop-opacity:0.690196;"/>
<stop offset="0.21" style="stop-color:rgb(0%,0%,0%);stop-opacity:0.321569;"/>
<stop offset="1" style="stop-color:rgb(0%,0%,0%);stop-opacity:0;"/>
</linearGradient>
<linearGradient id="linear2" gradientUnits="userSpaceOnUse" x1="242.97" y1="208.75" x2="290.27" y2="103.45" gradientTransform="matrix(0.749066,0,0,-0.750495,-19.689528,246.522636)">
<stop offset="0.01" style="stop-color:rgb(0%,0%,0%);stop-opacity:1;"/>
<stop offset="0.08" style="stop-color:rgb(0%,0%,0%);stop-opacity:0.690196;"/>
<stop offset="0.21" style="stop-color:rgb(0%,0%,0%);stop-opacity:0.321569;"/>
<stop offset="1" style="stop-color:rgb(0%,0%,0%);stop-opacity:0;"/>
</linearGradient>
<linearGradient id="linear3" gradientUnits="userSpaceOnUse" x1="93.46" y1="203.16" x2="201.02" y2="80.4" gradientTransform="matrix(0.749066,0,0,-0.750495,-19.689528,246.522636)">
<stop offset="0.01" style="stop-color:rgb(0%,0%,0%);stop-opacity:1;"/>
<stop offset="0.08" style="stop-color:rgb(0%,0%,0%);stop-opacity:0.690196;"/>
<stop offset="0.21" style="stop-color:rgb(0%,0%,0%);stop-opacity:0.321569;"/>
<stop offset="1" style="stop-color:rgb(0%,0%,0%);stop-opacity:0;"/>
</linearGradient>
<linearGradient id="linear4" gradientUnits="userSpaceOnUse" x1="-1227.2" y1="-205.25" x2="-1193.25" y2="-205.25" gradientTransform="matrix(-0.749066,0,0,0.750495,-804.081065,252.744241)">
<stop offset="0" style="stop-color:rgb(89.803922%,77.254902%,83.529412%);stop-opacity:1;"/>
<stop offset="0.42" style="stop-color:rgb(91.764706%,83.137255%,81.960784%);stop-opacity:1;"/>
<stop offset="1" style="stop-color:rgb(94.117647%,91.372549%,79.607843%);stop-opacity:1;"/>
</linearGradient>
<linearGradient id="linear5" gradientUnits="userSpaceOnUse" x1="26.11" y1="5.47" x2="198.18" y2="177.53" gradientTransform="matrix(0.749066,0,0,-0.750495,-19.689528,246.522636)">
<stop offset="0.01" style="stop-color:rgb(0%,0%,0%);stop-opacity:1;"/>
<stop offset="0.08" style="stop-color:rgb(0%,0%,0%);stop-opacity:0.690196;"/>
<stop offset="0.21" style="stop-color:rgb(0%,0%,0%);stop-opacity:0.321569;"/>
<stop offset="1" style="stop-color:rgb(0%,0%,0%);stop-opacity:0;"/>
</linearGradient>
<linearGradient id="linear6" gradientUnits="userSpaceOnUse" x1="42.25" y1="98.59" x2="117.33" y2="98.59" gradientTransform="matrix(0.749066,0,0,-0.750495,-19.689528,246.522636)">
<stop offset="0" style="stop-color:rgb(0%,0%,0%);stop-opacity:0;"/>
<stop offset="0.99" style="stop-color:rgb(0%,0%,0%);stop-opacity:1;"/>
</linearGradient>
<linearGradient id="linear7" gradientUnits="userSpaceOnUse" x1="250.87" y1="222.62" x2="362.37" y2="53.68" gradientTransform="matrix(0.749066,0,0,-0.750495,-19.689528,246.522636)">
<stop offset="0.01" style="stop-color:rgb(0%,0%,0%);stop-opacity:1;"/>
<stop offset="0.08" style="stop-color:rgb(0%,0%,0%);stop-opacity:0.690196;"/>
<stop offset="0.21" style="stop-color:rgb(0%,0%,0%);stop-opacity:0.321569;"/>
<stop offset="1" style="stop-color:rgb(0%,0%,0%);stop-opacity:0;"/>
</linearGradient>
<linearGradient id="linear8" gradientUnits="userSpaceOnUse" x1="-153.53" y1="-266.7" x2="-147.12" y2="-266.7" gradientTransform="matrix(0.719103,0.202634,-0.202248,0.720475,210.827921,314.645078)">
<stop offset="0" style="stop-color:rgb(89.019608%,77.254902%,83.529412%);stop-opacity:1;"/>
<stop offset="0.42" style="stop-color:rgb(90.980392%,82.745098%,81.176471%);stop-opacity:1;"/>
<stop offset="1" style="stop-color:rgb(93.72549%,90.980392%,79.607843%);stop-opacity:1;"/>
</linearGradient>
<linearGradient id="linear9" gradientUnits="userSpaceOnUse" x1="-9.71" y1="-246.95" x2="-6.92" y2="-262.08" gradientTransform="matrix(0.749066,0,0,0.750495,163.179858,278.576283)">
<stop offset="0" style="stop-color:rgb(0.392157%,0.392157%,0.392157%);stop-opacity:0;"/>
<stop offset="0.95" style="stop-color:rgb(0.392157%,0.392157%,0.392157%);stop-opacity:1;"/>
</linearGradient>
<linearGradient id="linear10" gradientUnits="userSpaceOnUse" x1="-14.99" y1="-255.44" x2="-4.33" y2="-255.44" gradientTransform="matrix(0.749066,0,0,0.750495,163.179858,278.576283)">
<stop offset="0" style="stop-color:rgb(89.019608%,77.254902%,83.529412%);stop-opacity:1;"/>
<stop offset="0.42" style="stop-color:rgb(90.980392%,82.745098%,81.176471%);stop-opacity:1;"/>
<stop offset="1" style="stop-color:rgb(93.72549%,90.980392%,79.607843%);stop-opacity:1;"/>
</linearGradient>
<linearGradient id="linear11" gradientUnits="userSpaceOnUse" x1="-5.46" y1="-256.14" x2="-8.18" y2="-256.46" gradientTransform="matrix(0.749066,0,0,0.750495,163.179858,278.576283)">
<stop offset="0" style="stop-color:rgb(0.392157%,0.392157%,0.392157%);stop-opacity:0;"/>
<stop offset="0.95" style="stop-color:rgb(0.392157%,0.392157%,0.392157%);stop-opacity:1;"/>
</linearGradient>
<linearGradient id="linear12" gradientUnits="userSpaceOnUse" x1="39.47" y1="-214.31" x2="46.06" y2="-214.31" gradientTransform="matrix(0.749066,0,0,0.750495,163.179858,278.576283)">
<stop offset="0" style="stop-color:rgb(89.019608%,77.254902%,83.529412%);stop-opacity:1;"/>
<stop offset="0.42" style="stop-color:rgb(90.980392%,82.745098%,81.176471%);stop-opacity:1;"/>
<stop offset="1" style="stop-color:rgb(93.72549%,90.980392%,79.607843%);stop-opacity:1;"/>
</linearGradient>
<linearGradient id="linear13" gradientUnits="userSpaceOnUse" x1="41.68" y1="-212.92" x2="51.52" y2="-226.46" gradientTransform="matrix(0.749066,0,0,0.750495,163.179858,278.576283)">
<stop offset="0" style="stop-color:rgb(0.392157%,0.392157%,0.392157%);stop-opacity:0;"/>
<stop offset="0.95" style="stop-color:rgb(0.392157%,0.392157%,0.392157%);stop-opacity:1;"/>
</linearGradient>
<linearGradient id="linear14" gradientUnits="userSpaceOnUse" x1="-47.51" y1="-244.73" x2="-36.02" y2="-244.73" gradientTransform="matrix(0.741575,0.120079,-0.11985,0.74299,196.715525,298.914701)">
<stop offset="0" style="stop-color:rgb(89.019608%,77.254902%,83.529412%);stop-opacity:1;"/>
<stop offset="0.42" style="stop-color:rgb(90.980392%,82.745098%,81.176471%);stop-opacity:1;"/>
<stop offset="1" style="stop-color:rgb(93.72549%,90.980392%,79.607843%);stop-opacity:1;"/>
</linearGradient>
<linearGradient id="linear15" gradientUnits="userSpaceOnUse" x1="39.47" y1="-249.9" x2="46.06" y2="-249.9" gradientTransform="matrix(0.749066,0,0,0.750495,163.179858,278.576283)">
<stop offset="0" style="stop-color:rgb(89.019608%,77.254902%,83.529412%);stop-opacity:1;"/>
<stop offset="0.42" style="stop-color:rgb(90.980392%,82.745098%,81.176471%);stop-opacity:1;"/>
<stop offset="1" style="stop-color:rgb(93.72549%,90.980392%,79.607843%);stop-opacity:1;"/>
</linearGradient>
<linearGradient id="linear16" gradientUnits="userSpaceOnUse" x1="41.68" y1="-248.51" x2="51.52" y2="-262.05" gradientTransform="matrix(0.749066,0,0,0.750495,163.179858,278.576283)">
<stop offset="0" style="stop-color:rgb(0.392157%,0.392157%,0.392157%);stop-opacity:0;"/>
<stop offset="0.95" style="stop-color:rgb(0.392157%,0.392157%,0.392157%);stop-opacity:1;"/>
</linearGradient>
<linearGradient id="linear17" gradientUnits="userSpaceOnUse" x1="-53.18" y1="-279.77" x2="-41.69" y2="-279.77" gradientTransform="matrix(0.741575,0.120079,-0.11985,0.74299,196.715525,298.914701)">
<stop offset="0" style="stop-color:rgb(89.019608%,77.254902%,83.529412%);stop-opacity:1;"/>
<stop offset="0.42" style="stop-color:rgb(90.980392%,82.745098%,81.176471%);stop-opacity:1;"/>
<stop offset="1" style="stop-color:rgb(93.72549%,90.980392%,79.607843%);stop-opacity:1;"/>
</linearGradient>
<linearGradient id="linear18" gradientUnits="userSpaceOnUse" x1="-12.99" y1="-215.5" x2="-13.22" y2="-227.05" gradientTransform="matrix(0.749066,0,0,0.750495,163.179858,278.576283)">
<stop offset="0" style="stop-color:rgb(0.392157%,0.392157%,0.392157%);stop-opacity:0;"/>
<stop offset="0.95" style="stop-color:rgb(0.392157%,0.392157%,0.392157%);stop-opacity:1;"/>
</linearGradient>
<mask id="mask1">
  <g filter="url(#alpha)">
<rect x="0" y="0" width="262" height="216" style="fill:rgb(0%,0%,0%);fill-opacity:0.501961;stroke:none;"/>
  </g>
</mask>
<linearGradient id="linear19" gradientUnits="userSpaceOnUse" x1="-17.48" y1="-222.44" x2="-16.24" y2="-223.12" gradientTransform="matrix(0.749066,0,0,0.750495,163.179858,278.576283)">
<stop offset="0" style="stop-color:rgb(0.392157%,0.392157%,0.392157%);stop-opacity:0;"/>
<stop offset="0.95" style="stop-color:rgb(0.392157%,0.392157%,0.392157%);stop-opacity:1;"/>
</linearGradient>
<clipPath id="clip2">
  <rect width="262" height="216"/>
</clipPath>
<g id="surface9" clip-path="url(#clip2)">
<path style=" stroke:none;fill-rule:nonzero;fill:url(#linear19);" d="M 150.183594 111.335938 C 150.160156 111.273438 150.132812 111.214844 150.101562 111.15625 C 150.066406 111.09375 150.003906 111.058594 149.9375 111.058594 C 149.867188 111.070312 149.816406 111.125 149.808594 111.191406 C 149.792969 111.257812 149.792969 111.324219 149.808594 111.386719 C 149.84375 111.523438 149.894531 111.648438 149.957031 111.769531 C 149.996094 111.851562 150.050781 111.921875 150.117188 111.980469 C 150.191406 112.035156 150.28125 112.070312 150.371094 112.085938 C 150.402344 112.101562 150.441406 112.101562 150.476562 112.085938 C 150.496094 112.070312 150.507812 112.046875 150.511719 112.019531 C 150.511719 111.90625 150.589844 111.667969 150.511719 111.570312 C 150.4375 111.472656 150.410156 111.570312 150.355469 111.507812 C 150.28125 111.472656 150.21875 111.410156 150.183594 111.335938 Z M 150.183594 111.335938 "/>
</g>
</defs>
<g id="surface1">
<use xlink:href="#surface6" mask="url(#mask0)"/>
<path style=" stroke:none;fill-rule:nonzero;fill:rgb(40.784314%,88.235294%,99.215686%);fill-opacity:1;" d="M 236.925781 166.96875 L 236.925781 205.140625 C 235.875 205.910156 234.796875 206.640625 233.6875 207.324219 C 223.808594 213.394531 212.429688 215.738281 200.769531 215.976562 C 193.460938 215.761719 186.179688 214.992188 178.984375 213.679688 L 174.746094 212.929688 C 173.328125 212.683594 171.90625 212.382812 170.492188 212.097656 L 170.492188 166.96875 Z M 236.925781 166.96875 "/>
<path style=" stroke:none;fill-rule:nonzero;fill:url(#linear0);" d="M 236.925781 166.96875 L 236.925781 205.140625 C 235.875 205.910156 234.796875 206.640625 233.6875 207.324219 C 223.808594 213.394531 212.429688 215.738281 200.769531 215.976562 C 193.460938 215.761719 186.179688 214.992188 178.984375 213.679688 L 174.746094 212.929688 C 173.328125 212.683594 171.90625 212.382812 170.492188 212.097656 L 170.492188 166.96875 Z M 236.925781 166.96875 "/>
<path style=" stroke:none;fill-rule:nonzero;fill:rgb(40.784314%,88.235294%,99.215686%);fill-opacity:1;" d="M 205.539062 161.566406 L 171.515625 161.566406 L 165.328125 135.171875 L 199.351562 135.171875 Z M 205.539062 161.566406 "/>
<path style=" stroke:none;fill-rule:nonzero;fill:rgb(40.784314%,88.235294%,99.215686%);fill-opacity:1;" d="M 203.710938 161.566406 L 169.6875 161.566406 L 163.503906 135.171875 L 197.523438 135.171875 Z M 203.710938 161.566406 "/>
<path style=" stroke:none;fill-rule:nonzero;fill:url(#linear1);" d="M 203.710938 161.566406 L 169.6875 161.566406 L 163.503906 135.171875 L 197.523438 135.171875 Z M 203.710938 161.566406 "/>
<path style=" stroke:none;fill-rule:nonzero;fill:rgb(40.784314%,88.235294%,99.215686%);fill-opacity:1;" d="M 134.078125 66.777344 L 233.128906 66.777344 C 238.972656 66.777344 243.710938 71.527344 243.710938 77.382812 L 243.710938 132.882812 C 243.710938 138.738281 238.972656 143.488281 233.128906 143.488281 L 134.078125 143.488281 C 128.234375 143.488281 123.496094 138.738281 123.496094 132.882812 L 123.496094 77.382812 C 123.496094 71.527344 128.234375 66.777344 134.078125 66.777344 Z M 134.078125 66.777344 "/>
<path style=" stroke:none;fill-rule:nonzero;fill:rgb(29.803922%,31.372549%,42.745098%);fill-opacity:1;" d="M 131.554688 66.777344 L 230.601562 66.777344 C 236.449219 66.777344 241.1875 71.527344 241.1875 77.382812 L 241.1875 132.882812 C 241.1875 138.738281 236.449219 143.488281 230.601562 143.488281 L 131.554688 143.488281 C 125.707031 143.488281 120.96875 138.738281 120.96875 132.882812 L 120.96875 77.382812 C 120.96875 71.527344 125.707031 66.777344 131.554688 66.777344 Z M 131.554688 66.777344 "/>
<path style=" stroke:none;fill-rule:nonzero;fill:url(#linear2);" d="M 241.179688 128.265625 L 241.179688 132.875 C 241.179688 138.730469 236.441406 143.480469 230.597656 143.480469 L 131.546875 143.480469 C 125.703125 143.480469 120.960938 138.730469 120.960938 132.875 L 120.960938 128.265625 Z M 241.179688 128.265625 "/>
<path style=" stroke:none;fill-rule:nonzero;fill:rgb(24.313725%,24.313725%,32.941176%);fill-opacity:1;" d="M 129.5625 197.417969 C 129.621094 200.195312 129.089844 202.957031 128.003906 205.515625 L 127.875 205.515625 C 124.949219 205.433594 122.011719 205.515625 119.074219 205.695312 C 114.191406 206.085938 109.332031 206.769531 104.527344 207.738281 C 102.28125 208.148438 100.09375 208.609375 97.882812 209.058594 C 95.675781 209.507812 93.660156 209.929688 91.539062 210.339844 C 87.515625 211.089844 83.652344 211.804688 79.90625 212.34375 C 75.039062 210.285156 70.6875 207.164062 67.171875 203.210938 C 66.789062 202.785156 66.421875 202.347656 66.0625 201.90625 C 65.605469 201.328125 65.171875 200.726562 64.769531 200.097656 C 63.546875 198.339844 62.753906 196.320312 62.453125 194.199219 C 62.355469 193.335938 62.386719 192.46875 62.542969 191.617188 C 63.105469 188.667969 65.253906 186.316406 67.679688 184.507812 C 67.945312 184.3125 68.207031 184.117188 68.476562 183.9375 C 73.820312 180.222656 80.230469 178.355469 86.730469 178.609375 C 87.269531 178.609375 87.816406 178.65625 88.355469 178.691406 C 91.839844 178.964844 95.289062 179.5625 98.664062 180.480469 C 103.996094 181.84375 109.320312 183.757812 114.589844 185.449219 C 118.488281 186.492188 122.21875 188.085938 125.667969 190.183594 C 126.65625 190.820312 127.515625 191.636719 128.207031 192.59375 C 129.105469 194.039062 129.574219 195.714844 129.5625 197.417969 Z M 129.5625 197.417969 "/>
<path style=" stroke:none;fill-rule:nonzero;fill:rgb(24.313725%,24.313725%,32.941176%);fill-opacity:1;" d="M 127.875 205.515625 C 124.949219 205.433594 122.011719 205.515625 119.074219 205.695312 C 114.191406 206.085938 109.332031 206.769531 104.527344 207.738281 C 102.28125 208.148438 100.09375 208.609375 97.882812 209.058594 C 95.675781 209.507812 93.660156 209.929688 91.539062 210.339844 C 80.199219 212.554688 69.710938 215.097656 58.039062 212.921875 C 57.347656 212.839844 56.679688 212.609375 56.085938 212.238281 C 55.382812 211.625 54.886719 210.808594 54.671875 209.898438 C 53.042969 204.761719 53.480469 199.191406 55.890625 194.371094 C 58.738281 188.75 63.253906 186.519531 68.535156 183.863281 C 74.625 180.773438 79.769531 178.4375 86.789062 178.609375 C 87.328125 178.609375 87.875 178.65625 88.414062 178.691406 C 91.878906 178.976562 95.308594 179.574219 98.664062 180.480469 C 103.90625 181.84375 109.203125 183.734375 114.394531 185.410156 C 118.292969 186.449219 122.023438 188.042969 125.472656 190.144531 C 126.464844 190.777344 127.328125 191.59375 128.019531 192.546875 C 128.902344 193.988281 129.367188 195.644531 129.359375 197.335938 C 129.457031 200.136719 128.953125 202.925781 127.875 205.515625 Z M 127.875 205.515625 "/>
<path style=" stroke:none;fill-rule:nonzero;fill:rgb(24.313725%,24.313725%,32.941176%);fill-opacity:1;" d="M 144.925781 207.152344 C 139.324219 206.25 133.671875 205.703125 128.003906 205.515625 L 127.875 205.515625 C 124.949219 205.433594 122.011719 205.515625 119.074219 205.695312 C 114.191406 206.085938 109.332031 206.769531 104.527344 207.738281 C 102.28125 208.148438 100.09375 208.609375 97.882812 209.058594 C 91.554688 207.925781 85.148438 207.007812 78.886719 205.621094 C 75.769531 205.128906 72.804688 203.945312 70.199219 202.160156 C 69.539062 201.640625 68.945312 201.042969 68.4375 200.375 C 68.207031 200.078125 67.996094 199.761719 67.808594 199.4375 C 67.007812 198.128906 66.621094 196.609375 66.699219 195.078125 C 66.726562 194.667969 66.796875 194.265625 66.910156 193.875 C 67.769531 191.625 69.382812 189.742188 71.472656 188.546875 C 74.644531 186.257812 78.378906 184.875 82.273438 184.554688 C 84.886719 184.410156 87.515625 184.9375 90.09375 184.792969 C 92.414062 184.667969 94.019531 183.375 96.085938 183.066406 C 97.660156 182.882812 99.253906 183.023438 100.769531 183.480469 C 104.3125 184.457031 107.964844 186.589844 110.746094 187.984375 L 129.472656 197.351562 L 129.613281 197.417969 L 133.359375 199.292969 C 136.875 200.917969 140.203125 202.910156 143.292969 205.246094 C 144.058594 205.652344 144.640625 206.332031 144.925781 207.152344 Z M 144.925781 207.152344 "/>
<path style=" stroke:none;fill-rule:nonzero;fill:rgb(40.784314%,88.235294%,99.215686%);fill-opacity:1;" d="M 220.402344 161.566406 L 220.402344 166.96875 L 3.042969 166.96875 C 2.707031 165.167969 2.386719 163.367188 2.09375 161.574219 Z M 220.402344 161.566406 "/>
<path style=" stroke:none;fill-rule:nonzero;fill:url(#linear3);" d="M 220.402344 161.566406 L 220.402344 166.96875 L 3.042969 166.96875 C 2.707031 165.167969 2.386719 163.367188 2.09375 161.574219 Z M 220.402344 161.566406 "/>
<path style=" stroke:none;fill-rule:nonzero;fill:url(#linear4);" d="M 110.648438 85.445312 C 108.054688 83.140625 102.632812 82.585938 100.160156 85.128906 C 98.332031 87.003906 98.214844 89.933594 97.765625 92.535156 C 97.09375 96.28125 95.523438 99.808594 93.1875 102.808594 C 91.929688 104.417969 90.414062 105.933594 89.875 107.890625 C 89.652344 108.523438 89.652344 109.214844 89.875 109.851562 C 90.25 110.519531 90.8125 111.066406 91.496094 111.417969 C 93.039062 112.546875 94.789062 113.363281 96.648438 113.820312 C 98.546875 114.265625 100.53125 113.570312 101.742188 112.042969 C 102.175781 111.394531 102.492188 110.539062 103.238281 110.285156 C 104.214844 109.976562 105.089844 110.921875 106.035156 111.296875 C 107.628906 111.90625 109.457031 110.757812 110.25 109.242188 C 110.925781 107.660156 111.328125 105.976562 111.449219 104.257812 C 111.5625 102.527344 112.351562 100.910156 113.644531 99.753906 C 114.160156 99.375 114.820312 99.085938 115.074219 98.496094 C 115.53125 97.398438 114.324219 96.402344 113.578125 95.492188 C 111.277344 92.492188 113.585938 87.898438 110.648438 85.445312 Z M 110.648438 85.445312 "/>
<path style=" stroke:none;fill-rule:nonzero;fill:rgb(24.313725%,24.313725%,32.941176%);fill-opacity:1;" d="M 109.832031 74.839844 C 106.574219 71.085938 101.589844 68.964844 97.335938 71.582031 C 95.734375 72.574219 94.460938 74.066406 92.773438 74.898438 C 91.734375 75.355469 90.648438 75.695312 89.53125 75.90625 C 86.640625 76.59375 83.644531 77.570312 81.6875 79.808594 C 79.734375 82.042969 79.367188 85.902344 81.652344 87.800781 C 80.679688 89.105469 80.792969 90.925781 81.921875 92.101562 C 82.625 92.65625 83.375 93.144531 84.167969 93.5625 C 86.414062 95.066406 86.414062 96.753906 86.242188 99.035156 C 86.28125 99.414062 86.4375 99.773438 86.683594 100.0625 L 88.738281 103.066406 C 89.449219 104.078125 90.394531 105.160156 91.597656 105.160156 C 93.382812 105.078125 94.296875 102.570312 96.09375 102.421875 C 96.863281 102.480469 97.621094 102.660156 98.339844 102.945312 C 99.089844 103.125 100.109375 102.90625 100.296875 102.148438 C 98.296875 101.0625 97.488281 98.601562 98.453125 96.535156 C 98.878906 95.695312 99.953125 94.984375 100.699219 95.539062 C 101.15625 95.875 101.269531 96.5 101.53125 97.039062 C 101.792969 97.578125 102.550781 97.917969 102.886719 97.460938 C 103.882812 95.109375 102.828125 92.296875 103.5625 89.894531 C 104.246094 87.777344 106.148438 86.292969 108.363281 86.140625 C 109.300781 86.066406 110.242188 86.261719 111.179688 86.140625 C 112.148438 86.089844 112.972656 85.417969 113.226562 84.484375 C 113.710938 81.210938 112.242188 77.59375 109.832031 74.839844 Z M 109.832031 74.839844 "/>
<path style=" stroke:none;fill-rule:nonzero;fill:rgb(40.784314%,88.235294%,99.215686%);fill-opacity:1;" d="M 84.886719 109.578125 C 84.511719 110.085938 84.386719 110.734375 84.542969 111.34375 C 84.84375 111.882812 85.425781 112.199219 86.042969 112.160156 C 90.289062 112.574219 94.722656 113.160156 98.691406 115.238281 C 99.554688 115.652344 100.683594 116.09375 101.285156 115.238281 C 101.628906 114.609375 101.628906 113.847656 101.285156 113.21875 C 100.960938 112.652344 100.511719 112.167969 99.972656 111.800781 C 98.253906 110.53125 96.457031 109.378906 94.589844 108.339844 C 91.121094 106.292969 87.554688 105.210938 84.886719 109.578125 Z M 84.886719 109.578125 "/>
<path style=" stroke:none;fill-rule:nonzero;fill:rgb(40.784314%,88.235294%,99.215686%);fill-opacity:1;" d="M 98.234375 179.667969 C 100.257812 183.707031 104.5 186.167969 100.257812 190.242188 C 92.769531 197.46875 79.53125 200.503906 69.5 200.40625 C 62.761719 200.34375 55.832031 198.796875 50.550781 194.625 C 48.929688 193.457031 47.667969 191.863281 46.894531 190.019531 C 46.511719 188.804688 46.3125 187.539062 46.296875 186.265625 C 44.96875 162.566406 53.359375 139.222656 65.195312 118.667969 C 67.441406 114.734375 70.4375 110.488281 74.886719 109.828125 C 76.492188 109.671875 78.113281 109.773438 79.6875 110.128906 C 90.199219 111.949219 100.589844 114.390625 110.8125 117.4375 C 113.289062 117.855469 115.425781 119.417969 116.582031 121.65625 L 132.753906 146.472656 C 135.089844 150.0625 137.515625 153.980469 137.246094 158.25 C 137.234375 159.503906 136.8125 160.71875 136.046875 161.710938 C 134.820312 162.863281 133.234375 163.558594 131.554688 163.683594 C 125.664062 164.636719 119.628906 164.222656 113.921875 162.480469 C 117.113281 160.027344 116.109375 154.933594 114.003906 151.488281 C 112.578125 149.167969 110.808594 147.078125 108.761719 145.289062 C 107.398438 151.992188 105.183594 158.492188 102.167969 164.628906 C 99.921875 169.222656 95.667969 174.582031 98.234375 179.667969 Z M 98.234375 179.667969 "/>
<path style=" stroke:none;fill-rule:nonzero;fill:url(#linear5);" d="M 52.167969 147.9375 C 52.582031 146.390625 53.777344 141.484375 55.246094 138.78125 C 61.097656 142.960938 65.390625 151.121094 67.554688 157.988281 C 69.71875 164.855469 71.480469 172.074219 75.875 177.761719 L 80.640625 176.105469 L 81.523438 179.105469 C 82.226562 181.476562 80.226562 183.917969 80.429688 186.316406 C 80.632812 188.71875 83.042969 190.820312 85.320312 191.453125 C 88.0625 192.203125 90.984375 191.585938 93.734375 190.859375 C 95.507812 190.511719 97.191406 189.785156 98.664062 188.734375 C 100.046875 187.59375 100.960938 185.6875 100.445312 183.96875 C 101.617188 184.699219 102.148438 186.125 101.75 187.445312 C 101.339844 188.71875 100.554688 189.84375 99.5 190.671875 C 96.175781 193.597656 91.945312 195.226562 87.808594 196.792969 C 85.828125 197.589844 83.808594 198.277344 81.757812 198.859375 C 77.082031 200.097656 72.191406 200.21875 67.359375 200.359375 C 64.421875 200.425781 62.664062 199.96875 61.367188 197.058594 C 59.507812 192.90625 59.375 188.222656 58.925781 183.691406 C 57.597656 171.617188 55.339844 159.664062 52.167969 147.9375 Z M 52.167969 147.9375 "/>
<path style=" stroke:none;fill-rule:nonzero;fill:rgb(24.313725%,24.313725%,32.941176%);fill-opacity:1;" d="M 68.199219 191.421875 C 68.199219 192.710938 68.167969 194.027344 68.109375 195.363281 C 68.042969 196.691406 67.921875 198.046875 67.757812 199.4375 L 67.644531 200.34375 C 67.515625 201.289062 67.375 202.242188 67.203125 203.210938 C 67.195312 203.246094 67.195312 203.28125 67.203125 203.316406 C 67.105469 203.847656 67 204.390625 66.894531 204.9375 C 67.351562 207.882812 66.976562 210.898438 65.816406 213.644531 C 63.148438 213.734375 60.472656 213.695312 57.808594 213.515625 C 52.613281 213.203125 47.46875 212.285156 42.484375 210.785156 C 37.386719 208.171875 32.683594 204.855469 28.511719 200.929688 C 27.359375 199.941406 26.441406 198.710938 25.824219 197.320312 C 25.375 195.820312 25.222656 194.25 25.367188 192.691406 C 25.515625 183.996094 24.371094 175.328125 21.972656 166.96875 C 21.457031 165.152344 20.871094 163.351562 20.234375 161.574219 C 19.488281 159.554688 18.738281 157.566406 17.847656 155.570312 C 15.792969 150.941406 13.308594 146.421875 12.371094 141.445312 C 11.847656 138.722656 11.816406 135.925781 12.28125 133.191406 C 12.304688 132.703125 12.488281 132.238281 12.804688 131.871094 C 13.285156 131.484375 13.902344 131.3125 14.511719 131.398438 C 20.761719 131.570312 26.4375 135.148438 32.609375 136.207031 C 35.777344 136.746094 39.066406 136.605469 42.144531 137.519531 C 46.527344 138.8125 49.898438 142.023438 52.558594 145.777344 C 53.933594 147.765625 55.148438 149.863281 56.199219 152.042969 C 57.800781 155.308594 59.300781 158.429688 60.691406 161.46875 C 61.5 163.292969 62.257812 165.085938 62.941406 166.863281 C 65.246094 172.457031 66.851562 178.3125 67.710938 184.300781 L 67.710938 184.410156 C 68.019531 186.734375 68.183594 189.078125 68.199219 191.421875 Z M 68.199219 191.421875 "/>
<path style=" stroke:none;fill-rule:nonzero;fill:url(#linear6);" d="M 68.199219 191.421875 C 68.199219 192.710938 68.167969 194.027344 68.109375 195.363281 C 68.042969 196.691406 67.921875 198.046875 67.757812 199.4375 L 67.644531 200.34375 C 67.515625 201.289062 67.375 202.242188 67.203125 203.210938 C 67.195312 203.246094 67.195312 203.28125 67.203125 203.316406 C 67.105469 203.847656 67 204.390625 66.894531 204.9375 C 67.351562 207.882812 66.976562 210.898438 65.816406 213.644531 C 63.148438 213.734375 60.472656 213.695312 57.808594 213.515625 C 52.613281 213.203125 47.46875 212.285156 42.484375 210.785156 C 37.386719 208.171875 32.683594 204.855469 28.511719 200.929688 C 27.359375 199.941406 26.441406 198.710938 25.824219 197.320312 C 25.375 195.820312 25.222656 194.25 25.367188 192.691406 C 25.515625 183.996094 24.371094 175.328125 21.972656 166.96875 C 21.457031 165.152344 20.871094 163.351562 20.234375 161.574219 C 19.488281 159.554688 18.738281 157.566406 17.847656 155.570312 C 15.792969 150.941406 13.308594 146.421875 12.371094 141.445312 C 11.847656 138.722656 11.816406 135.925781 12.28125 133.191406 C 12.304688 132.703125 12.488281 132.238281 12.804688 131.871094 C 13.285156 131.484375 13.902344 131.3125 14.511719 131.398438 C 20.761719 131.570312 26.4375 135.148438 32.609375 136.207031 C 35.777344 136.746094 39.066406 136.605469 42.144531 137.519531 C 46.527344 138.8125 49.898438 142.023438 52.558594 145.777344 C 53.933594 147.765625 55.148438 149.863281 56.199219 152.042969 C 57.800781 155.308594 59.300781 158.429688 60.691406 161.46875 C 61.5 163.292969 62.257812 165.085938 62.941406 166.863281 C 65.246094 172.457031 66.851562 178.3125 67.710938 184.300781 L 67.710938 184.410156 C 68.019531 186.734375 68.183594 189.078125 68.199219 191.421875 Z M 68.199219 191.421875 "/>
<path style=" stroke:none;fill-rule:nonzero;fill:rgb(40.784314%,88.235294%,99.215686%);fill-opacity:1;" d="M 189.507812 161.566406 L 258.6875 161.566406 L 258.6875 166.960938 L 189.507812 166.960938 Z M 189.507812 161.566406 "/>
<path style=" stroke:none;fill-rule:nonzero;fill:url(#linear7);" d="M 189.507812 161.566406 L 258.6875 161.566406 L 258.6875 166.960938 L 189.507812 166.960938 Z M 189.507812 161.566406 "/>
<path style=" stroke:none;fill-rule:nonzero;fill:rgb(40.784314%,88.235294%,99.215686%);fill-opacity:1;" d="M 241.179688 166.96875 L 241.179688 205.140625 C 240.132812 205.910156 239.050781 206.640625 237.945312 207.324219 C 220.714844 217.914062 198.894531 217.171875 178.984375 213.679688 L 174.746094 212.929688 L 174.746094 166.96875 Z M 241.179688 166.96875 "/>
<path style=" stroke:none;fill-rule:nonzero;fill:rgb(100%,100%,100%);fill-opacity:1;" d="M 137.285156 74.140625 L 174.371094 74.140625 L 174.371094 98.328125 L 137.285156 98.328125 Z M 137.285156 74.140625 "/>
<path style=" stroke:none;fill-rule:nonzero;fill:rgb(40.784314%,88.235294%,99.215686%);fill-opacity:1;" d="M 145.195312 96.714844 C 146.710938 94.292969 149.398438 92.863281 152.25 92.964844 C 153.230469 92.964844 154.222656 93.03125 155.195312 93.03125 C 158.011719 93.03125 162.25 92.046875 164.679688 93.496094 C 165.683594 94.089844 166.519531 96.777344 167.015625 97.84375 C 167.148438 98.039062 167.164062 98.292969 167.050781 98.503906 C 166.910156 98.691406 166.691406 98.675781 166.492188 98.675781 C 161.496094 98.621094 156.511719 98.675781 151.507812 98.675781 L 144.5 98.675781 C 144.558594 97.972656 144.796875 97.296875 145.195312 96.714844 Z M 145.195312 96.714844 "/>
<path style=" stroke:none;fill-rule:nonzero;fill:url(#linear8);" d="M 155.007812 94.171875 C 155.234375 94.34375 155.488281 94.480469 155.757812 94.570312 C 156.3125 94.796875 156.914062 94.875 157.507812 94.800781 C 158.109375 94.710938 158.609375 94.292969 158.804688 93.714844 C 158.867188 93.414062 158.867188 93.105469 158.804688 92.804688 L 158.683594 91.726562 C 158.671875 91.1875 158.535156 90.660156 158.296875 90.179688 C 157.804688 89.40625 156.832031 89.089844 155.980469 89.429688 C 155.445312 89.695312 155.019531 90.144531 154.78125 90.699219 C 154.242188 91.921875 153.816406 93.195312 155.007812 94.171875 Z M 155.007812 94.171875 "/>
<path style=" stroke:none;fill-rule:nonzero;fill:url(#linear9);" d="M 158.320312 90.179688 C 158.320312 90.179688 157.179688 93.464844 155.53125 93.464844 C 153.882812 93.464844 154.320312 91.867188 154.320312 91.867188 Z M 158.320312 90.179688 "/>
<path style=" stroke:none;fill-rule:nonzero;fill:url(#linear10);" d="M 152.046875 88.859375 C 152.191406 89.429688 152.460938 89.953125 152.648438 90.507812 C 152.71875 90.769531 152.824219 91.023438 152.957031 91.261719 C 153.1875 91.59375 153.527344 91.839844 153.914062 91.957031 C 154.746094 92.257812 155.660156 92.230469 156.46875 91.875 C 157.5625 91.335938 158.394531 90.378906 158.773438 89.21875 C 159.1875 88.085938 159.90625 86.96875 159.9375 85.742188 C 159.9375 85.226562 159.316406 84.601562 159.136719 84.117188 C 158.910156 83.597656 158.570312 83.136719 158.144531 82.765625 C 157.804688 82.394531 157.402344 82.082031 156.960938 81.839844 C 155.820312 81.386719 154.527344 81.539062 153.523438 82.253906 C 153.179688 82.441406 152.871094 82.699219 152.625 83.003906 C 152.042969 83.808594 152.132812 84.789062 152.125 85.730469 C 152.117188 86.808594 151.785156 87.792969 152.046875 88.859375 Z M 152.046875 88.859375 "/>
<path style=" stroke:none;fill-rule:nonzero;fill:rgb(86.666667%,50.196078%,28.627451%);fill-opacity:1;" d="M 150.671875 83.351562 C 150.386719 82.757812 150.207031 82.121094 150.136719 81.464844 C 150.085938 81.316406 150.085938 81.152344 150.136719 81 C 150.242188 80.785156 150.519531 80.714844 150.683594 80.542969 C 151.039062 80.167969 150.761719 79.566406 150.78125 79.042969 C 150.859375 78.441406 151.253906 77.933594 151.816406 77.714844 C 152.375 77.507812 152.96875 77.410156 153.5625 77.421875 C 154.351562 77.277344 155.167969 77.46875 155.808594 77.953125 C 156.109375 78.253906 156.265625 78.703125 156.558594 78.953125 C 157.238281 79.515625 158.273438 79.148438 159.136719 79.351562 C 159.902344 79.523438 160.492188 80.140625 160.632812 80.917969 C 160.753906 81.667969 160.460938 82.515625 160.886719 83.167969 C 161.054688 83.34375 161.199219 83.535156 161.316406 83.746094 C 161.382812 83.996094 161.359375 84.265625 161.246094 84.5 C 160.917969 85.480469 160.46875 86.414062 159.90625 87.28125 C 159.808594 87.457031 159.671875 87.605469 159.5 87.710938 C 159.320312 87.800781 159.015625 88.859375 158.910156 88.695312 C 158.804688 88.082031 158.859375 87.453125 159.074219 86.871094 C 159.269531 86.6875 159.429688 86.476562 159.546875 86.238281 C 159.574219 86.042969 159.523438 85.839844 159.402344 85.679688 C 159.28125 85.523438 159.101562 85.417969 158.902344 85.390625 C 158.679688 85.363281 158.453125 85.4375 158.289062 85.59375 C 158.484375 84.394531 157.839844 82.976562 156.648438 82.726562 C 155.929688 82.644531 155.207031 82.792969 154.582031 83.15625 C 153.203125 83.777344 151.726562 85.25 150.671875 83.351562 Z M 150.671875 83.351562 "/>
<path style=" stroke:none;fill-rule:nonzero;fill:url(#linear11);" d="M 158.738281 85.804688 C 158.753906 85.75 158.796875 85.707031 158.851562 85.683594 C 158.914062 85.683594 158.976562 85.707031 159.03125 85.742188 C 159.128906 85.789062 159.203125 85.875 159.238281 85.976562 C 159.261719 86.050781 159.261719 86.132812 159.238281 86.210938 C 159.203125 86.367188 159.140625 86.519531 159.058594 86.660156 C 158.976562 86.804688 158.832031 86.898438 158.671875 86.921875 C 158.59375 86.921875 158.484375 86.75 158.484375 86.683594 C 158.484375 86.613281 158.558594 86.578125 158.589844 86.507812 C 158.679688 86.300781 158.589844 86.035156 158.738281 85.804688 Z M 158.738281 85.804688 "/>
<path style=" stroke:none;fill-rule:nonzero;fill:rgb(100%,100%,100%);fill-opacity:1;" d="M 177.773438 74.3125 L 214.859375 74.3125 L 214.859375 98.503906 L 177.773438 98.503906 Z M 177.773438 74.3125 "/>
<path style=" stroke:none;fill-rule:nonzero;fill:rgb(100%,100%,100%);fill-opacity:1;" d="M 177.773438 101.292969 L 214.859375 101.292969 L 214.859375 125.484375 L 177.773438 125.484375 Z M 177.773438 101.292969 "/>
<path style=" stroke:none;fill-rule:nonzero;fill:rgb(100%,100%,100%);fill-opacity:1;" d="M 137.285156 101.292969 L 174.371094 101.292969 L 174.371094 125.484375 L 137.285156 125.484375 Z M 137.285156 101.292969 "/>
<path style=" stroke:none;fill-rule:nonzero;fill:rgb(37.647059%,38.039216%,38.039216%);fill-opacity:1;" d="M 192.46875 103.71875 C 193.847656 103.300781 195.308594 103.222656 196.722656 103.492188 C 197.527344 103.558594 198.3125 103.785156 199.03125 104.160156 C 200.332031 104.910156 200.984375 106.480469 201.277344 107.964844 C 201.457031 109.476562 201.761719 110.964844 202.191406 112.425781 C 202.828125 114.058594 204.085938 115.425781 204.511719 117.136719 C 205.191406 119.894531 203.515625 122.679688 200.769531 123.367188 C 200.351562 123.46875 199.921875 123.519531 199.496094 123.515625 C 198.402344 123.515625 197.335938 123.15625 196.242188 123.15625 C 193.996094 123.15625 191.832031 124.703125 189.621094 124.253906 C 187.808594 123.875 186.511719 122.234375 185.773438 120.5 C 185.238281 119.46875 185.09375 118.28125 185.359375 117.152344 C 185.855469 115.652344 187.433594 114.78125 188.140625 113.398438 C 189.03125 111.636719 188.363281 109.542969 189.128906 107.75 C 189.824219 106.113281 190.65625 104.371094 192.46875 103.71875 Z M 192.46875 103.71875 "/>
<path style=" stroke:none;fill-rule:nonzero;fill:rgb(40.784314%,88.235294%,99.215686%);fill-opacity:1;" d="M 200.242188 118.1875 C 201.457031 118.429688 202.820312 118.316406 203.808594 119.027344 C 204.402344 119.492188 204.804688 120.15625 204.949219 120.898438 C 205.074219 121.625 205.109375 122.367188 205.050781 123.105469 L 204.96875 125.28125 C 204.976562 125.359375 204.957031 125.441406 204.910156 125.503906 C 204.835938 125.554688 204.746094 125.574219 204.65625 125.566406 L 185.929688 125.632812 C 185.597656 124.433594 185.773438 123.152344 186.414062 122.089844 C 186.886719 121.164062 187.527344 120.332031 188.304688 119.644531 C 189.441406 118.78125 192.09375 118.707031 193.34375 117.992188 C 193.675781 117.8125 193.34375 117.550781 193.742188 117.453125 C 194.140625 117.355469 193.953125 116.925781 194.3125 116.917969 C 195.410156 116.832031 196.511719 116.878906 197.597656 117.0625 C 198.519531 117.332031 199.246094 117.984375 200.242188 118.1875 Z M 200.242188 118.1875 "/>
<path style=" stroke:none;fill-rule:nonzero;fill:url(#linear12);" d="M 192.925781 118.820312 C 192.828125 119.117188 192.769531 119.425781 192.746094 119.742188 C 192.738281 120.464844 193.113281 121.140625 193.734375 121.511719 C 194.359375 121.875 195.121094 121.914062 195.777344 121.617188 C 196.480469 121.257812 197.019531 120.640625 197.277344 119.890625 C 197.539062 119.148438 197.667969 118.363281 197.660156 117.574219 C 197.683594 116.523438 197.621094 115.472656 197.472656 114.433594 C 197.503906 114.265625 197.46875 114.089844 197.367188 113.949219 C 197.269531 113.808594 197.117188 113.710938 196.949219 113.683594 L 196.789062 113.683594 C 195.523438 113.503906 194.292969 114.199219 193.792969 115.382812 C 193.667969 115.765625 193.582031 116.160156 193.539062 116.558594 C 193.375 117.324219 193.167969 118.078125 192.925781 118.820312 Z M 192.925781 118.820312 "/>
<path style=" stroke:none;fill-rule:nonzero;fill:url(#linear13);" d="M 193.390625 117.226562 C 193.390625 117.226562 193.277344 118.1875 193.710938 118.546875 C 194.144531 118.910156 195.863281 119.742188 196.707031 118.546875 C 197.226562 117.78125 197.5625 116.90625 197.6875 115.988281 Z M 193.390625 117.226562 "/>
<path style=" stroke:none;fill-rule:nonzero;fill:url(#linear14);" d="M 191.015625 114.058594 C 191.230469 114.765625 192.558594 117.25 194.378906 117.699219 C 198.3125 118.675781 199.503906 111.75 199.308594 110.292969 C 199.046875 109.078125 198.414062 107.972656 197.503906 107.132812 C 196.480469 106.335938 195.101562 106.179688 193.929688 106.71875 C 190.84375 108.042969 190.050781 111.050781 191.015625 114.058594 Z M 191.015625 114.058594 "/>
<path style=" stroke:none;fill-rule:nonzero;fill:rgb(37.647059%,38.039216%,38.039216%);fill-opacity:1;" d="M 189.742188 110.195312 C 189.8125 110.496094 190.046875 110.734375 190.347656 110.804688 C 190.679688 110.789062 191 110.699219 191.292969 110.539062 C 191.667969 110.429688 192.042969 110.472656 192.453125 110.332031 C 192.867188 110.1875 193.121094 109.730469 192.902344 109.414062 C 192.789062 109.894531 193.425781 110.210938 193.914062 110.164062 C 194.386719 110.023438 194.882812 109.992188 195.367188 110.074219 L 195.554688 109.113281 C 195.5 109.527344 195.742188 109.917969 196.132812 110.058594 C 196.511719 110.1875 196.925781 110.1875 197.308594 110.058594 C 197.480469 110.015625 197.6875 109.878906 197.621094 109.714844 C 198.019531 110.195312 198.78125 109.992188 199.359375 109.714844 C 199.453125 109.683594 199.53125 109.625 199.585938 109.542969 C 199.621094 109.445312 199.621094 109.339844 199.585938 109.242188 C 199.378906 108.300781 199.046875 107.394531 198.589844 106.546875 C 198.109375 105.691406 197.292969 105.078125 196.339844 104.851562 C 195.792969 104.785156 195.238281 104.8125 194.699219 104.941406 C 193.269531 105.164062 191.96875 105.898438 191.039062 107.003906 C 190.363281 107.808594 189.449219 109.183594 189.742188 110.195312 Z M 189.742188 110.195312 "/>
<path style=" stroke:none;fill-rule:nonzero;fill:rgb(98.431373%,69.019608%,23.137255%);fill-opacity:1;" d="M 192.46875 77 C 193.847656 76.585938 195.308594 76.511719 196.722656 76.78125 C 197.527344 76.847656 198.3125 77.078125 199.03125 77.449219 C 201.324219 78.808594 200.78125 80.753906 200.992188 82.878906 C 201.027344 83.589844 201.433594 84.226562 202.0625 84.558594 C 202.5 84.746094 203.023438 84.722656 203.390625 85.023438 C 203.773438 85.421875 203.910156 85.996094 203.742188 86.523438 C 203.613281 87.042969 203.359375 87.523438 203.253906 88.027344 C 203.199219 88.230469 203.222656 88.445312 203.324219 88.632812 C 203.480469 88.867188 203.800781 88.902344 204.070312 89.007812 C 204.691406 89.339844 205.097656 89.964844 205.140625 90.667969 C 205.230469 91.351562 205.140625 92.039062 205.195312 92.730469 C 205.269531 93.160156 205.308594 93.59375 205.308594 94.03125 C 205.21875 95.359375 203.890625 96.332031 202.566406 96.507812 C 201.230469 96.566406 199.898438 96.328125 198.664062 95.808594 C 197.429688 95.289062 196.085938 95.074219 194.753906 95.179688 C 193.328125 95.410156 191.824219 96.339844 190.566406 95.644531 C 189.847656 95.171875 189.417969 94.363281 189.433594 93.503906 C 189.460938 92.660156 189.636719 91.828125 189.953125 91.042969 C 190.070312 90.796875 190.09375 90.515625 190.019531 90.253906 C 189.894531 90.0625 189.726562 89.902344 189.53125 89.78125 C 187.6875 88.347656 188.363281 82.898438 189.140625 81.046875 C 189.824219 79.402344 190.65625 77.660156 192.46875 77 Z M 192.46875 77 "/>
<path style=" stroke:none;fill-rule:nonzero;fill:rgb(40.784314%,88.235294%,99.215686%);fill-opacity:1;" d="M 200.242188 91.476562 C 201.457031 91.71875 202.820312 91.605469 203.808594 92.320312 C 204.402344 92.78125 204.804688 93.445312 204.949219 94.1875 C 205.070312 94.929688 205.097656 95.6875 205.03125 96.4375 L 204.949219 98.613281 C 204.953125 98.691406 204.933594 98.769531 204.886719 98.832031 C 204.816406 98.886719 204.722656 98.914062 204.632812 98.898438 L 185.90625 98.96875 C 185.574219 97.769531 185.75 96.488281 186.394531 95.425781 C 186.863281 94.5 187.503906 93.667969 188.28125 92.980469 C 189.417969 92.117188 192.070312 92.039062 193.320312 91.328125 C 193.652344 91.148438 193.320312 90.886719 193.71875 90.789062 C 194.117188 90.691406 193.929688 90.261719 194.289062 90.253906 C 195.386719 90.167969 196.492188 90.214844 197.578125 90.398438 C 198.519531 90.621094 199.246094 91.273438 200.242188 91.476562 Z M 200.242188 91.476562 "/>
<path style=" stroke:none;fill-rule:nonzero;fill:url(#linear15);" d="M 192.925781 92.109375 C 192.828125 92.40625 192.769531 92.71875 192.746094 93.03125 C 192.738281 93.753906 193.113281 94.429688 193.734375 94.800781 C 194.359375 95.164062 195.121094 95.203125 195.777344 94.90625 C 196.480469 94.546875 197.019531 93.929688 197.277344 93.179688 C 197.539062 92.4375 197.667969 91.652344 197.660156 90.863281 C 197.683594 89.8125 197.621094 88.765625 197.472656 87.726562 C 197.503906 87.554688 197.46875 87.378906 197.367188 87.238281 C 197.269531 87.097656 197.117188 87.003906 196.949219 86.976562 L 196.789062 86.976562 C 195.523438 86.792969 194.292969 87.488281 193.792969 88.671875 C 193.667969 89.054688 193.582031 89.449219 193.539062 89.847656 C 193.375 90.613281 193.167969 91.367188 192.925781 92.109375 Z M 192.925781 92.109375 "/>
<path style=" stroke:none;fill-rule:nonzero;fill:url(#linear16);" d="M 193.390625 90.515625 C 193.390625 90.515625 193.277344 91.476562 193.710938 91.839844 C 194.144531 92.199219 195.863281 93.03125 196.707031 91.839844 C 197.226562 91.070312 197.5625 90.195312 197.6875 89.277344 Z M 193.390625 90.515625 "/>
<path style=" stroke:none;fill-rule:nonzero;fill:url(#linear17);" d="M 191.015625 87.351562 C 191.230469 88.054688 192.558594 90.539062 194.378906 90.988281 C 198.3125 91.964844 199.503906 85.039062 199.308594 83.582031 C 199.046875 82.367188 198.414062 81.261719 197.503906 80.421875 C 196.480469 79.628906 195.101562 79.46875 193.929688 80.011719 C 190.84375 81.332031 190.050781 84.339844 191.015625 87.351562 Z M 191.015625 87.351562 "/>
<path style=" stroke:none;fill-rule:nonzero;fill:rgb(40.784314%,88.235294%,99.215686%);fill-opacity:1;" d="M 148.101562 116.550781 C 149.6875 115.949219 151.371094 115.660156 153.066406 115.703125 C 154.917969 115.628906 156.902344 115.605469 158.4375 116.410156 C 159.15625 116.820312 159.800781 117.339844 160.355469 117.957031 C 160.558594 118.140625 160.734375 118.355469 160.871094 118.59375 C 160.996094 118.890625 161.046875 119.214844 161.023438 119.539062 L 161.023438 123.9375 C 161.046875 124.226562 160.996094 124.519531 160.871094 124.785156 C 160.46875 125.535156 161.882812 125.535156 160.871094 125.535156 L 143.957031 125.535156 C 144.226562 125.535156 144.511719 123.027344 144.503906 122.773438 C 144.503906 121.902344 144.234375 121.160156 144.65625 120.34375 C 145.335938 118.71875 146.554688 117.382812 148.101562 116.550781 Z M 148.101562 116.550781 "/>
<path style=" stroke:none;fill-rule:nonzero;fill:rgb(65.098039%,48.627451%,32.156863%);fill-opacity:1;" d="M 152.289062 118.113281 C 152.808594 118.542969 153.476562 118.75 154.144531 118.683594 C 154.976562 118.480469 155.582031 117.765625 155.644531 116.914062 C 155.757812 116.125 155.578125 115.3125 155.644531 114.511719 C 155.71875 114.011719 155.71875 113.507812 155.644531 113.007812 C 155.339844 112.21875 154.621094 111.664062 153.777344 111.574219 C 152.941406 111.480469 152.109375 111.785156 151.53125 112.402344 C 150.746094 113.28125 150.984375 114.332031 150.949219 115.402344 C 150.9375 116.46875 151.4375 117.476562 152.289062 118.113281 Z M 152.289062 118.113281 "/>
<path style=" stroke:none;fill-rule:nonzero;fill:url(#linear18);" d="M 151.15625 114.433594 C 151.15625 114.433594 152.042969 117.003906 153.742188 117.003906 C 155.441406 117.003906 155.683594 116.140625 155.683594 116.140625 L 155.605469 114.757812 Z M 151.15625 114.433594 "/>
<path style=" stroke:none;fill-rule:nonzero;fill:rgb(65.098039%,48.627451%,32.156863%);fill-opacity:1;" d="M 157.269531 111.34375 C 157.246094 112.109375 157.121094 112.863281 156.894531 113.59375 C 156.671875 114.324219 156.214844 114.957031 155.597656 115.402344 C 154.699219 115.972656 153.578125 116.058594 152.601562 115.628906 C 151.621094 115.195312 150.824219 114.425781 150.355469 113.460938 C 149.863281 112.527344 149.554688 111.507812 149.449219 110.457031 C 149.371094 109.648438 149.519531 108.835938 149.875 108.109375 C 150.304688 107.371094 151.003906 106.832031 151.824219 106.609375 C 152.636719 106.382812 153.480469 106.296875 154.320312 106.351562 C 155.003906 106.328125 155.6875 106.460938 156.320312 106.734375 C 157.015625 107.039062 157.425781 107.769531 157.320312 108.523438 C 157.179688 109.398438 157.320312 110.398438 157.269531 111.34375 Z M 157.269531 111.34375 "/>
<path style=" stroke:none;fill-rule:nonzero;fill:rgb(37.647059%,38.039216%,38.039216%);fill-opacity:1;" d="M 150.550781 110.96875 C 150.332031 110.855469 150.214844 110.5625 149.972656 110.539062 C 149.820312 110.535156 149.683594 110.625 149.621094 110.765625 C 149.578125 110.910156 149.578125 111.0625 149.621094 111.207031 C 149.683594 111.558594 149.859375 111.878906 150.125 112.117188 C 150.246094 112.199219 150.347656 112.3125 150.414062 112.445312 C 150.4375 112.554688 150.4375 112.664062 150.414062 112.769531 L 150.320312 113.519531 C 149.9375 113.371094 149.644531 113.058594 149.515625 112.671875 C 149.457031 112.515625 149.398438 112.207031 149.1875 112.160156 C 148.976562 112.117188 148.835938 112.386719 148.582031 112.160156 C 148.398438 112.019531 148.351562 111.765625 148.46875 111.570312 C 148.226562 111.832031 147.71875 111.570312 147.675781 111.246094 C 147.65625 110.882812 147.855469 110.546875 148.183594 110.390625 C 147.796875 110.277344 147.507812 109.960938 147.433594 109.566406 C 147.394531 109.210938 147.648438 108.890625 148.003906 108.851562 C 148.0625 108.84375 148.125 108.84375 148.183594 108.851562 C 147.914062 108.511719 147.914062 108.03125 148.183594 107.6875 C 148.460938 107.363281 148.867188 107.175781 149.292969 107.179688 L 149.292969 106.039062 C 149.273438 105.777344 149.332031 105.515625 149.457031 105.285156 C 149.597656 105.085938 149.875 105.035156 150.078125 105.175781 L 150.117188 105.175781 C 150.167969 104.640625 150.304688 104.011719 150.796875 103.824219 C 151.1875 103.746094 151.589844 103.824219 151.921875 104.042969 C 151.964844 103.5625 152.304688 103.160156 152.769531 103.042969 C 153.234375 102.9375 153.71875 103.042969 154.101562 103.328125 C 154.148438 103.371094 154.203125 103.402344 154.265625 103.417969 C 154.339844 103.441406 154.421875 103.441406 154.5 103.417969 C 154.820312 103.183594 155.21875 103.082031 155.613281 103.144531 C 156.007812 103.203125 156.359375 103.417969 156.59375 103.742188 C 156.851562 104.09375 156.945312 104.546875 156.84375 104.972656 C 156.84375 104.722656 157.21875 104.710938 157.457031 104.769531 C 157.738281 104.804688 158 104.929688 158.207031 105.121094 C 158.542969 105.496094 158.378906 106.089844 158.136719 106.539062 C 158.628906 106.542969 159.039062 106.914062 159.097656 107.402344 C 159.179688 108.25 158.347656 108.265625 157.898438 108.722656 C 157.597656 109.03125 157.464844 109.476562 157.148438 109.753906 C 156.726562 110.015625 156.195312 110.039062 155.75 109.8125 C 155.320312 109.589844 154.902344 109.339844 154.503906 109.0625 C 154.308594 108.917969 154.066406 108.855469 153.824219 108.882812 C 153.488281 108.949219 153.292969 109.316406 152.992188 109.488281 C 152.710938 109.621094 152.394531 109.652344 152.09375 109.574219 C 151.726562 109.496094 151.34375 109.429688 151.058594 109.765625 C 150.816406 110.132812 150.644531 110.539062 150.550781 110.96875 Z M 150.550781 110.96875 "/>
<use xlink:href="#surface9" mask="url(#mask1)"/>
<path style=" stroke:none;fill-rule:nonzero;fill:rgb(98.431373%,69.019608%,23.137255%);fill-opacity:1;" d="M 193.734375 82.578125 C 194.554688 82.820312 195.394531 82.996094 196.242188 83.101562 C 196.296875 83.597656 196.363281 84.09375 196.453125 84.601562 C 196.476562 84.808594 196.542969 85.007812 196.640625 85.1875 C 196.8125 85.445312 197.085938 85.617188 197.390625 85.667969 C 197.703125 85.714844 198.019531 85.714844 198.332031 85.667969 C 198.472656 85.636719 198.617188 85.664062 198.738281 85.738281 C 198.796875 85.796875 198.84375 85.867188 198.871094 85.945312 L 199.425781 87.253906 C 199.460938 87.269531 199.5 87.269531 199.53125 87.253906 C 199.5625 87.238281 199.585938 87.207031 199.59375 87.171875 C 199.605469 87.101562 199.605469 87.027344 199.59375 86.960938 C 199.503906 86.441406 199.855469 85.96875 200.0625 85.457031 C 200.59375 84.234375 200.242188 82.816406 199.785156 81.554688 C 199.597656 80.972656 199.324219 80.421875 198.96875 79.921875 C 198.058594 78.902344 196.777344 78.289062 195.414062 78.222656 C 194.742188 78.121094 194.058594 78.179688 193.417969 78.398438 C 192.492188 78.800781 191.863281 79.6875 191.785156 80.699219 C 191.773438 81.742188 192.910156 82.328125 193.734375 82.578125 Z M 193.734375 82.578125 "/>
</g>
</svg>
